<?xml version="1.0" standalone="no"?>
<!DOCTYPE svg PUBLIC "-//W3C//DTD SVG 20010904//EN"
 "http://www.w3.org/TR/2001/REC-SVG-20010904/DTD/svg10.dtd">
<svg version="1.0" xmlns="http://www.w3.org/2000/svg"
 width="2000.000000pt" height="2000.000000pt" viewBox="0 0 2000.000000 2000.000000"
 preserveAspectRatio="xMidYMid meet">
<metadata>
Created by potrace 1.14, written by Peter Selinger 2001-2017
</metadata>
<g transform="translate(0.000000,2000.000000) scale(0.100000,-0.100000)"
fill="#000000" stroke="none">
<path d="M0 18225 c0 -1532 2 -1775 14 -1775 8 0 21 -6 28 -13 7 -8 25 -20 38
-27 14 -7 42 -26 62 -42 21 -16 38 -27 38 -23 0 4 7 2 16 -6 8 -7 27 -13 40
-14 14 0 28 -6 32 -11 10 -16 192 -10 202 6 6 9 9 9 13 -1 4 -11 6 -11 6 -1 1
8 6 10 13 5 19 -11 39 -13 32 -2 -3 5 4 8 16 6 12 -2 26 -10 31 -18 5 -8 9
-10 9 -6 0 4 10 3 21 -4 15 -8 19 -8 15 0 -4 6 -2 11 3 11 6 0 11 -5 11 -10 0
-6 14 -19 31 -29 20 -12 27 -21 19 -26 -8 -5 -3 -13 14 -24 14 -10 23 -20 20
-24 -10 -10 5 -59 16 -52 6 3 11 -3 11 -14 1 -12 2 -27 3 -33 1 -7 6 -18 11
-24 6 -6 23 -27 38 -47 15 -19 41 -50 57 -68 16 -19 30 -38 30 -42 0 -5 4 -6
8 -3 4 2 9 -5 9 -17 1 -12 7 -23 13 -25 5 -2 10 -12 10 -22 0 -10 5 -22 10
-25 6 -4 8 -11 5 -16 -4 -5 -1 -9 4 -9 6 0 11 -5 11 -11 0 -5 -4 -8 -9 -4 -5
3 -3 -8 5 -25 9 -17 20 -28 25 -25 5 4 5 -5 -1 -19 -6 -17 -6 -26 0 -26 6 0 9
-3 8 -7 -3 -16 23 -93 32 -93 6 0 10 -7 10 -15 0 -9 11 -20 24 -24 13 -5 26
-17 29 -25 5 -12 14 -15 32 -10 19 5 25 2 25 -10 0 -9 7 -16 15 -16 16 0 55
-34 55 -48 0 -4 19 -29 43 -54 23 -26 43 -53 45 -60 2 -7 9 -16 15 -20 7 -4 9
-8 5 -8 -14 0 116 -120 136 -126 12 -3 37 -13 56 -21 38 -18 57 -20 231 -28
101 -4 138 -9 234 -30 11 -2 51 -6 88 -10 105 -8 254 -32 271 -43 6 -3 21 -7
34 -8 13 -2 35 -10 49 -19 14 -10 22 -12 19 -6 -17 27 0 15 120 -91 36 -31 74
-78 74 -92 0 -8 7 -17 16 -20 8 -3 13 -10 9 -15 -3 -6 0 -13 7 -18 7 -4 33
-48 58 -97 83 -164 172 -263 292 -320 55 -26 121 -79 215 -174 24 -24 43 -47
43 -52 0 -4 7 -11 16 -14 8 -3 13 -10 9 -15 -3 -5 4 -12 15 -16 11 -4 18 -10
15 -14 -2 -4 7 -14 21 -22 17 -9 24 -19 21 -31 -4 -13 2 -20 21 -24 39 -10 46
-15 31 -25 -11 -7 -10 -9 3 -9 9 0 21 -7 26 -16 6 -11 17 -15 31 -11 11 3 19
1 16 -3 -3 -5 -1 -11 5 -15 5 -3 10 -1 10 4 0 6 9 3 20 -7 12 -9 22 -16 23
-15 1 1 20 -4 42 -12 26 -9 39 -19 39 -30 -1 -10 2 -13 10 -7 16 12 55 7 69
-8 9 -10 9 -11 0 -6 -7 4 -13 5 -13 2 0 -3 9 -10 20 -16 16 -9 19 -8 13 6 -5
15 -3 15 21 -1 23 -16 26 -16 20 -1 -7 19 -4 19 31 6 14 -5 24 -6 21 -1 -3 5
1 12 10 15 9 4 13 2 8 -5 -4 -7 -1 -10 7 -7 8 3 13 10 12 15 -1 5 12 8 28 7
16 -1 29 1 29 5 0 4 6 8 13 9 22 1 57 11 70 19 6 4 15 8 19 8 4 0 27 19 52 43
24 23 48 42 53 42 6 0 19 11 29 25 51 68 183 90 274 46 24 -11 49 -21 54 -21
6 0 17 -9 24 -21 8 -12 19 -18 28 -15 8 3 13 2 10 -3 -3 -4 6 -13 19 -19 14
-7 25 -20 25 -29 0 -15 2 -16 10 -3 8 13 10 12 10 -2 0 -10 5 -18 10 -18 6 0
10 -9 10 -21 0 -11 4 -17 10 -14 14 9 12 -8 -3 -24 -10 -11 -9 -12 2 -6 11 6
13 4 8 -9 -4 -10 -3 -15 3 -11 6 3 10 1 10 -6 0 -7 12 -26 28 -42 15 -17 20
-26 12 -22 -13 8 -13 7 -1 -9 8 -10 23 -15 33 -12 15 3 17 2 8 -9 -13 -15 -6
-35 12 -35 5 0 7 7 4 16 -7 18 8 11 42 -19 21 -20 22 -20 22 -1 0 11 3 15 8 8
7 -11 54 -27 82 -29 8 0 30 -8 48 -18 17 -10 32 -14 32 -11 0 4 9 -1 20 -11
10 -9 31 -17 45 -17 14 0 25 -5 25 -10 0 -6 7 -8 15 -4 8 3 15 2 15 -2 0 -4
24 -20 54 -35 30 -15 59 -34 66 -42 7 -8 20 -15 29 -15 19 0 143 -79 186 -119
39 -37 120 -91 135 -91 7 0 29 -13 49 -29 20 -15 63 -47 95 -70 33 -22 56 -41
51 -41 -4 0 8 -12 27 -27 59 -48 80 -71 74 -82 -3 -5 3 -13 15 -16 11 -4 18
-9 15 -12 -3 -4 -1 -12 5 -20 6 -7 8 -13 5 -13 -4 0 -2 -9 4 -20 8 -15 8 -20
-2 -20 -10 0 -10 -2 1 -9 7 -5 11 -14 7 -20 -4 -6 -2 -20 4 -31 8 -15 8 -20
-2 -20 -10 0 -10 -2 1 -9 11 -7 11 -9 0 -14 -11 -4 -11 -6 -1 -6 7 -1 10 -5 7
-11 -3 -5 -2 -10 4 -10 6 0 9 -10 8 -22 -4 -42 41 -128 79 -150 18 -11 31 -25
27 -31 -3 -6 -1 -7 5 -3 7 4 12 3 12 -1 0 -5 15 -13 33 -19 18 -5 31 -15 29
-23 -2 -9 3 -11 13 -7 9 3 32 -5 53 -19 20 -14 30 -25 22 -25 -8 0 2 -10 22
-22 21 -12 40 -30 44 -40 3 -10 9 -16 13 -13 5 2 15 -12 24 -33 32 -72 92
-172 125 -206 17 -19 32 -39 32 -44 0 -5 7 -12 15 -16 8 -3 15 0 15 6 0 6 8 4
18 -5 10 -10 24 -17 31 -17 6 0 29 -9 50 -20 21 -10 41 -17 44 -14 10 11 86
-38 80 -52 -2 -7 5 -17 16 -24 12 -6 21 -17 21 -25 0 -8 4 -15 9 -15 9 0 25
-37 23 -50 0 -3 5 -12 13 -20 7 -8 16 -25 19 -37 4 -13 12 -23 18 -23 6 0 8
-3 5 -6 -3 -4 12 -27 33 -52 22 -25 38 -47 35 -50 -6 -6 40 -42 54 -42 6 0 11
-5 11 -10 0 -6 23 -32 50 -59 28 -27 50 -53 50 -58 0 -5 14 -17 31 -27 24 -14
28 -20 18 -32 -11 -13 -2 -19 24 -15 4 0 7 -4 7 -9 0 -6 11 -16 25 -22 14 -6
25 -18 25 -26 0 -9 7 -13 20 -9 11 3 20 1 20 -5 0 -5 4 -6 10 -3 5 3 10 1 10
-4 0 -6 7 -11 15 -11 8 0 15 -4 15 -10 0 -5 9 -10 19 -10 11 0 21 -3 23 -7 2
-5 21 -20 43 -34 22 -14 53 -34 69 -45 53 -35 203 -119 216 -121 16 -3 77 -35
162 -85 53 -32 102 -58 108 -58 5 0 10 -4 10 -10 0 -29 174 -72 235 -57 34 9
101 47 81 47 -4 0 5 12 19 26 35 35 43 24 14 -18 -27 -38 -51 -58 -61 -52 -5
3 -8 0 -8 -6 0 -6 -4 -8 -10 -5 -5 3 -10 1 -10 -5 0 -7 -8 -9 -20 -5 -11 3
-20 2 -20 -3 0 -11 -73 1 -130 20 -19 7 -41 11 -48 10 -6 -2 -12 2 -12 8 0 5
-4 10 -9 10 -6 0 -38 17 -73 38 -138 84 -173 104 -183 106 -26 5 -115 49 -115
57 0 5 -8 9 -18 9 -10 0 -34 12 -53 26 -19 14 -59 39 -90 54 -31 16 -63 35
-70 42 -23 22 -148 82 -156 75 -3 -4 -16 2 -27 12 -12 11 -37 23 -56 26 -40 7
-52 15 -24 15 16 1 15 4 -8 21 -16 11 -28 26 -28 31 0 6 -14 24 -32 40 -17 15
-28 28 -23 28 5 0 -1 7 -13 16 -12 8 -20 19 -17 24 3 5 -4 15 -15 23 -11 7
-18 16 -15 18 2 3 -12 14 -33 24 -20 11 -39 20 -41 22 -2 1 2 9 9 18 9 11 10
15 0 15 -14 0 -90 75 -90 90 0 6 -8 25 -17 43 -9 18 -18 35 -19 40 -1 4 -3 9
-4 12 -1 3 -3 8 -4 13 -1 7 -10 18 -65 78 -15 17 -45 37 -67 44 -21 7 -52 20
-69 28 -28 14 -29 14 -16 -1 12 -15 11 -17 -6 -17 -11 0 -31 8 -44 18 -13 10
-33 22 -44 26 -15 5 -16 9 -6 15 10 7 9 10 -8 16 -12 3 -19 10 -17 14 3 4 -8
20 -25 35 -16 15 -29 32 -29 38 0 5 -7 16 -15 24 -8 8 -19 32 -25 52 -5 20
-21 49 -35 64 -14 15 -25 32 -25 38 0 15 -78 90 -93 90 -6 0 -18 7 -28 16 -9
8 -23 17 -31 18 -21 4 -71 29 -91 46 -60 50 -87 80 -93 106 -3 16 -11 34 -18
39 -10 9 -12 19 -19 85 -2 14 -7 32 -11 39 -5 8 -4 16 4 21 9 6 9 9 0 15 -6 4
-9 13 -6 21 3 8 2 14 -2 14 -4 0 -8 12 -7 28 0 15 -4 30 -10 34 -5 4 -11 12
-11 18 -1 5 -3 12 -4 15 -1 3 -3 8 -4 13 -1 9 -52 67 -91 105 -16 16 -55 41
-85 56 -31 15 -69 36 -85 48 -17 11 -56 37 -87 57 -32 20 -63 45 -70 55 -7 10
-28 27 -45 37 -18 11 -73 45 -124 77 -50 31 -99 57 -109 57 -10 0 -21 4 -24 9
-7 10 -86 37 -141 47 -22 3 -44 9 -50 12 -15 9 -45 9 -39 0 3 -4 1 -8 -5 -8
-5 0 -13 5 -16 10 -3 6 -11 10 -16 10 -6 0 -7 -4 -4 -10 9 -14 -8 -12 -24 2
-11 11 -14 10 -18 0 -4 -10 -8 -10 -19 -1 -10 8 -14 9 -14 0 0 -8 -10 -6 -30
4 -21 11 -30 12 -30 4 0 -8 -7 -6 -18 4 -10 10 -29 17 -41 17 -12 0 -19 4 -16
10 3 6 2 10 -2 10 -5 0 -31 21 -58 46 -27 25 -41 42 -30 38 18 -7 18 -6 7 9
-8 9 -24 19 -35 23 -21 7 -21 7 -2 14 18 6 17 8 -10 23 -22 12 -25 16 -11 17
15 0 16 3 6 15 -7 8 -9 15 -4 15 5 0 0 7 -10 15 -11 8 -16 15 -11 15 4 0 0 9
-9 19 -10 11 -15 25 -10 32 5 8 3 10 -6 4 -10 -6 -12 -4 -7 8 3 10 2 17 -3 17
-6 0 -20 11 -32 25 -15 17 -32 25 -55 25 -19 0 -32 4 -28 9 5 9 -60 -5 -80
-17 -5 -4 -15 -7 -22 -7 -6 0 -21 -12 -33 -27 -12 -16 -28 -28 -36 -28 -8 0
-12 -4 -9 -10 3 -5 -1 -10 -9 -10 -9 0 -16 -4 -16 -8 0 -13 -55 -72 -67 -72
-6 0 -14 -8 -17 -17 -6 -14 -9 -15 -15 -4 -6 9 -11 10 -15 2 -4 -6 -12 -8 -18
-5 -7 4 -8 2 -4 -4 6 -11 -6 -16 -26 -13 -5 0 -8 -4 -8 -10 0 -5 -4 -7 -10 -4
-5 3 -10 -2 -10 -12 0 -15 -2 -16 -10 -3 -8 13 -10 12 -10 -3 0 -10 -4 -16 -9
-12 -14 8 -61 -16 -61 -32 0 -7 -5 -13 -11 -13 -5 0 -7 5 -3 12 4 7 3 8 -4 4
-7 -4 -12 -14 -12 -22 0 -8 -5 -14 -11 -14 -5 0 -7 6 -4 13 4 6 0 4 -8 -5 -16
-21 -32 -24 -21 -5 5 9 4 9 -6 0 -11 -10 -16 -9 -25 4 -10 13 -14 13 -20 3 -5
-9 -4 -11 3 -6 12 7 17 -6 6 -16 -6 -7 -84 30 -84 40 0 4 -20 18 -45 31 -25
13 -45 28 -45 32 0 5 -9 9 -20 9 -11 0 -20 5 -20 11 0 6 -7 8 -16 5 -8 -3 -12
-2 -9 4 3 6 -1 10 -9 10 -9 0 -16 4 -16 9 0 5 -20 19 -45 31 -25 12 -43 26
-39 31 3 5 2 9 -3 9 -13 0 -78 61 -78 72 0 6 -9 14 -19 18 -14 4 -16 9 -8 14
14 8 -1 45 -24 59 -8 4 -14 14 -14 21 0 7 -16 30 -35 52 -19 21 -35 42 -35 47
0 4 -7 7 -15 7 -8 0 -15 4 -15 9 0 20 -71 80 -155 131 -99 60 -201 155 -256
240 -47 72 -99 159 -99 166 0 18 -164 181 -190 189 -11 4 -20 10 -20 15 0 4
-15 14 -32 21 -33 12 -41 14 -88 22 -14 3 -38 7 -55 11 -53 10 -193 25 -267
28 -27 2 -48 7 -48 12 0 5 -3 7 -6 3 -3 -3 -27 1 -52 9 -50 15 -120 22 -274
28 -62 3 -110 10 -129 20 -18 9 -40 16 -50 16 -10 0 -24 6 -31 13 -7 8 -24 20
-38 27 -35 19 -168 126 -219 176 -24 24 -50 44 -58 44 -8 0 -11 5 -8 10 3 6 0
10 -8 10 -7 0 -23 9 -35 20 -12 11 -29 20 -39 20 -15 0 -16 2 -3 10 14 9 7 15
-14 11 -5 -1 -6 6 -2 15 4 12 2 15 -9 10 -8 -3 -15 -1 -15 5 0 5 -12 21 -26
34 -15 14 -23 25 -19 25 4 0 0 9 -9 19 -10 10 -18 33 -18 50 -1 17 -4 28 -8
26 -6 -4 -14 21 -24 75 -1 3 -5 11 -9 18 -5 7 -3 12 4 12 8 0 8 4 -1 15 -7 8
-9 15 -5 15 4 0 2 6 -4 13 -6 8 -8 17 -4 20 3 4 0 7 -7 7 -7 0 -10 3 -7 7 4 3
2 12 -3 19 -6 6 -13 21 -15 32 -2 11 -20 37 -39 58 -20 21 -36 42 -36 46 0 4
-7 8 -16 8 -8 0 -12 5 -9 10 3 6 -2 10 -11 10 -10 0 -15 3 -11 6 3 4 -9 22
-28 40 -19 19 -35 36 -35 39 0 2 -23 27 -51 54 -28 27 -48 42 -45 33 4 -11 -2
-8 -14 7 -11 13 -20 18 -20 11 0 -9 -4 -9 -17 1 -11 10 -14 10 -9 2 4 -7 2
-13 -3 -13 -6 0 -11 4 -11 8 0 4 -9 8 -20 9 -11 1 -20 -4 -20 -10 0 -8 -3 -7
-9 2 -6 9 -11 10 -15 2 -4 -6 -12 -9 -17 -6 -5 4 -9 1 -9 -4 0 -16 -16 -13
-34 5 -11 10 -16 11 -16 3 0 -7 -3 -9 -7 -6 -3 4 -13 1 -21 -6 -13 -9 -14 -9
-8 1 4 8 1 13 -11 14 -10 0 -22 2 -28 2 -11 2 -52 35 -98 79 -16 15 -33 27
-38 27 -6 0 -20 10 -32 23 -12 12 -28 23 -35 24 -9 2 -12 -651 -12 -3240 l0
-3242 34 -32 c19 -17 32 -34 29 -37 -10 -9 -45 -7 -39 2 3 5 -1 9 -9 9 -13 0
-15 -270 -15 -2059 0 -1132 2 -2058 4 -2058 3 0 12 8 22 17 9 10 29 18 43 19
14 1 26 3 26 4 0 10 65 5 82 -6 14 -9 23 -10 23 -4 0 7 6 8 19 0 11 -5 38 -9
61 -8 23 1 45 -3 48 -9 4 -5 22 -10 40 -10 19 0 37 -4 40 -9 4 -5 18 -10 32
-11 14 -2 49 -5 79 -8 30 -3 62 -12 72 -21 10 -9 23 -13 28 -9 6 3 11 3 11 -2
0 -4 10 -9 23 -9 12 -1 31 -3 42 -4 74 -8 198 50 276 130 27 28 47 50 44 50
-2 0 6 11 18 24 37 41 51 59 53 71 2 15 45 76 72 103 12 12 22 27 22 32 0 6 6
10 13 10 8 0 19 11 25 25 7 14 20 25 31 25 10 0 21 7 25 15 3 8 14 15 25 15
11 0 22 4 25 8 2 4 21 9 42 10 46 3 97 25 136 57 16 14 26 25 23 25 -4 0 12
18 35 40 23 22 39 40 34 40 -4 0 1 6 11 14 11 8 16 19 12 30 -4 9 -2 16 3 16
6 0 10 5 10 11 0 5 -4 8 -8 5 -5 -3 -9 1 -9 9 0 8 4 15 8 15 9 0 24 40 21 54
-2 4 3 14 9 22 6 8 8 14 4 14 -4 0 3 9 16 21 13 11 18 17 11 14 -11 -6 -12 -3
-3 14 7 11 16 21 21 21 5 0 7 6 4 14 -3 8 3 16 16 19 12 3 19 10 16 16 -8 12
0 17 43 26 24 5 31 4 27 -4 -4 -6 -12 -9 -17 -6 -5 4 -9 1 -9 -5 0 -8 7 -9 18
-5 26 11 103 15 97 5 -3 -5 3 -8 12 -8 10 1 33 -2 51 -6 21 -5 32 -4 32 3 0 6
5 11 11 11 5 0 7 -5 3 -12 -4 -6 -3 -8 4 -4 6 3 13 2 17 -3 4 -7 15 -7 30 -1
14 5 25 6 25 2 0 -4 4 -2 8 3 4 6 24 18 44 27 34 16 37 16 31 1 -5 -13 -3 -15
13 -9 10 5 33 10 49 12 17 2 37 7 45 11 8 3 26 8 39 9 27 3 129 43 150 59 12
8 13 7 6 -4 -6 -11 -4 -13 11 -6 10 4 47 9 81 10 34 2 68 7 75 11 7 5 19 9 28
10 8 1 40 9 70 18 30 8 96 25 145 36 50 11 113 28 142 36 31 10 88 17 145 17
88 0 97 -2 168 -37 41 -20 80 -42 87 -48 7 -6 13 -7 13 -3 0 4 7 2 15 -5 8 -6
18 -9 24 -6 5 3 11 2 13 -4 1 -5 13 -11 25 -13 11 -1 27 -7 35 -13 7 -6 20
-10 28 -9 8 1 24 -3 35 -9 28 -14 95 -16 95 -2 0 6 4 5 9 -3 7 -11 11 -10 20
5 6 11 11 15 11 11 0 -9 50 39 50 48 0 3 8 15 19 26 10 11 33 62 51 112 17 51
34 99 37 107 4 8 7 17 8 20 10 38 93 165 147 224 16 17 40 54 54 83 14 29 36
63 49 77 12 13 25 36 29 49 3 14 13 32 21 41 8 8 15 20 15 26 0 6 7 13 15 16
8 4 15 12 15 18 0 7 18 27 40 46 22 18 42 42 46 52 3 10 9 16 14 13 5 -3 16 5
25 19 9 13 27 27 41 30 13 4 24 11 24 17 0 6 4 8 9 4 5 -3 18 5 28 19 10 13
29 26 41 30 12 4 22 13 22 20 0 7 14 25 30 39 17 15 30 36 30 47 0 10 9 25 20
33 11 8 17 17 12 22 -4 4 1 5 11 2 13 -5 17 -1 17 15 0 12 3 19 6 15 4 -3 22
10 40 29 19 19 39 32 44 29 5 -3 12 0 15 6 4 5 13 8 21 5 8 -3 14 -1 14 5 0 6
4 8 9 5 4 -3 22 -2 38 3 18 5 37 5 47 -1 12 -7 21 -7 28 0 8 8 17 8 31 0 15
-7 22 -7 28 3 7 12 9 12 9 0 0 -10 3 -11 13 -2 8 6 17 8 20 4 11 -10 128 -12
153 -3 17 7 23 5 26 -6 3 -13 6 -13 25 4 13 10 19 23 15 27 -4 5 1 5 11 2 11
-4 17 -1 17 9 0 8 5 12 10 9 6 -3 10 3 10 15 0 12 4 19 9 16 5 -4 7 3 4 14 -3
12 1 22 10 26 9 3 19 19 22 35 4 16 11 29 16 29 6 0 7 5 4 10 -3 6 -2 10 3 10
5 0 12 14 16 31 3 17 10 28 16 24 5 -3 10 -3 10 2 0 4 11 21 24 36 16 18 26
23 28 15 4 -10 9 -8 22 5 10 9 22 17 27 17 6 0 7 4 4 10 -3 6 1 7 9 4 9 -3 16
-1 16 5 0 6 5 11 11 11 7 0 22 11 35 26 14 14 24 19 24 12 0 -9 3 -9 10 2 5 8
10 11 10 5 0 -5 7 -2 15 9 7 10 18 15 24 11 7 -3 11 2 11 13 0 15 5 19 20 15
12 -3 20 0 20 8 0 7 3 10 6 6 3 -3 15 3 27 13 11 11 23 17 27 15 5 -3 10 2 14
10 3 8 11 12 19 9 7 -2 21 4 31 15 10 11 22 19 26 16 4 -2 22 0 41 6 19 6 52
13 74 15 22 2 76 9 120 15 79 11 95 12 206 5 61 -4 122 -28 143 -57 7 -10 16
-16 19 -12 4 3 7 1 7 -5 0 -7 4 -12 10 -12 9 0 25 -13 90 -73 17 -15 34 -26
39 -23 5 3 11 -4 14 -15 4 -14 11 -20 21 -16 8 3 19 0 25 -7 11 -13 69 -14 89
-2 7 4 12 2 12 -4 0 -6 5 -8 10 -5 6 4 7 11 4 17 -5 7 -1 9 9 5 10 -4 17 -2
17 4 0 6 7 9 15 5 8 -3 14 -1 12 4 -2 10 63 70 77 70 5 0 4 6 -2 13 -9 10 -6
17 8 29 10 9 22 13 26 10 4 -4 4 -2 0 5 -3 6 -2 14 3 18 6 3 8 12 5 20 -7 17
30 68 41 57 5 -4 5 -1 1 6 -9 15 20 46 34 37 5 -3 10 1 10 9 0 15 11 20 26 14
3 -2 10 5 15 14 5 10 16 15 24 12 8 -4 15 -1 15 7 0 7 3 10 6 6 4 -3 13 0 20
8 8 8 20 12 27 10 7 -3 20 9 30 27 14 25 20 29 27 18 7 -12 10 -12 15 3 6 15
78 43 98 39 5 -2 6 1 3 6 -4 8 209 118 216 111 2 -1 14 4 28 11 14 8 28 14 32
15 11 0 22 15 10 15 -6 0 2 13 16 29 38 41 54 61 47 61 -3 0 1 10 10 23 8 13
12 27 8 30 -3 4 -1 7 6 7 7 0 9 5 6 10 -3 6 -1 10 6 10 8 0 6 5 -5 13 -16 12
-16 14 9 27 14 8 23 20 21 27 -3 7 -1 13 5 13 6 0 8 4 4 9 -3 5 4 13 16 16 11
4 18 13 15 20 -5 14 20 29 34 20 5 -3 26 2 47 11 38 17 143 27 143 14 0 -4 27
-1 60 7 63 14 98 9 64 -10 -11 -6 -28 -12 -39 -14 -11 -1 -32 -4 -46 -6 -14
-2 -32 -8 -39 -12 -9 -5 -11 -4 -6 3 5 8 -1 12 -14 12 -12 0 -18 -4 -15 -10 9
-14 -8 -13 -23 2 -9 9 -15 9 -24 0 -7 -7 -20 -12 -31 -12 -10 0 -15 -4 -12
-10 3 -5 0 -10 -8 -10 -25 0 -70 -27 -55 -33 8 -3 0 -10 -18 -16 -28 -11 -31
-15 -29 -53 1 -28 -3 -45 -16 -56 -9 -8 -15 -21 -12 -28 3 -8 -1 -14 -8 -15
-8 0 -5 -4 6 -9 19 -8 19 -9 1 -9 -15 -1 -17 -4 -9 -12 15 -15 -31 -54 -49
-43 -9 5 -8 2 1 -10 8 -9 10 -16 5 -15 -20 3 -35 -1 -30 -10 5 -8 -13 -17 -53
-26 -8 -2 -17 -9 -21 -16 -4 -6 -18 -13 -31 -14 -53 -5 -55 -6 -34 -14 16 -6
12 -11 -28 -26 -26 -10 -57 -26 -69 -36 -12 -11 -40 -25 -62 -31 -46 -13 -86
-36 -86 -49 0 -5 8 -6 17 -3 10 3 2 -3 -17 -13 -23 -13 -37 -15 -42 -8 -5 6
-8 5 -8 -3 0 -8 -5 -10 -12 -6 -10 6 -10 5 -1 -7 10 -12 10 -18 0 -29 -9 -10
-9 -11 0 -6 9 5 11 2 7 -8 -3 -8 -12 -12 -20 -9 -8 3 -12 8 -9 12 2 4 -3 8
-12 8 -9 0 -18 -8 -20 -18 -3 -11 -11 -15 -20 -12 -9 4 -22 -2 -29 -12 -17
-23 -18 -39 -2 -29 7 4 8 3 4 -4 -9 -15 -36 -4 -30 13 3 7 1 16 -5 20 -7 4 -8
0 -4 -11 5 -13 3 -15 -7 -9 -10 6 -12 4 -7 -8 3 -9 2 -19 -3 -22 -4 -3 -10 -1
-12 5 -5 16 -29 -5 -31 -28 0 -11 -10 -23 -21 -26 -16 -4 -17 -8 -7 -20 10
-11 10 -20 1 -37 -8 -14 -15 -18 -19 -11 -4 7 -14 -1 -26 -21 -20 -35 -61 -77
-75 -77 -5 0 -13 -6 -17 -14 -4 -8 -29 -24 -55 -36 -27 -12 -45 -27 -42 -32 4
-6 -1 -6 -13 0 -10 6 -32 9 -49 7 -21 -2 -40 5 -69 28 -23 18 -34 23 -25 12
14 -20 14 -20 -7 -1 -13 10 -20 22 -18 27 3 4 -4 10 -15 14 -11 4 -18 11 -15
16 4 5 1 9 -4 9 -6 0 -11 7 -11 15 0 8 -6 15 -13 15 -8 0 -24 11 -37 25 -13
14 -26 23 -28 20 -3 -3 -12 4 -19 15 -8 11 -19 18 -24 15 -5 -4 -9 -1 -9 4 0
24 -116 56 -185 52 -95 -6 -139 -10 -257 -25 -61 -8 -133 -36 -161 -62 -14
-13 -31 -24 -37 -24 -5 0 -10 -6 -10 -12 0 -10 -3 -9 -9 1 -7 11 -10 9 -16 -7
-3 -12 -9 -21 -13 -20 -13 2 -47 -15 -55 -29 -4 -7 -14 -13 -21 -13 -7 0 -19
-11 -26 -25 -7 -14 -20 -25 -28 -25 -8 0 -26 -13 -42 -30 -15 -16 -30 -26 -34
-23 -3 3 -6 -1 -6 -10 0 -10 -7 -17 -16 -17 -9 0 -12 -5 -8 -12 5 -8 2 -9 -10
-5 -9 4 -15 3 -12 -2 3 -4 -8 -21 -24 -36 -16 -15 -27 -32 -24 -37 3 -4 1 -8
-5 -8 -6 0 -13 -11 -17 -25 -3 -14 -10 -25 -15 -25 -5 0 -5 -7 -2 -17 4 -11 3
-14 -5 -9 -8 5 -14 -3 -18 -23 -4 -17 -10 -31 -15 -31 -5 0 -8 -6 -7 -12 2 -7
-3 -12 -9 -10 -7 1 -13 -2 -13 -6 0 -18 -46 -60 -75 -69 -37 -12 -116 -9 -144
6 -18 10 -21 9 -22 -6 0 -16 -1 -16 -9 2 -5 11 -9 14 -9 7 -1 -9 -6 -10 -19
-3 -13 7 -23 6 -32 -2 -10 -9 -11 -9 -6 0 9 16 -35 13 -46 -2 -4 -5 -8 -1 -8
10 -1 19 -1 19 -11 2 -6 -9 -15 -14 -22 -10 -21 13 -61 12 -77 -2 -10 -9 -21
-11 -29 -5 -16 9 -43 2 -36 -10 3 -4 -2 -11 -11 -14 -13 -5 -14 -9 -4 -21 10
-12 10 -15 -2 -15 -15 0 -53 -39 -53 -55 0 -5 -14 -18 -30 -30 -17 -11 -30
-29 -30 -40 0 -22 -40 -60 -54 -51 -5 3 -8 -2 -7 -12 1 -11 -5 -16 -17 -14 -9
2 -20 -4 -23 -13 -4 -9 -13 -14 -20 -11 -8 3 -14 -1 -14 -10 0 -11 -6 -14 -16
-10 -10 4 -13 2 -8 -6 5 -8 2 -9 -9 -5 -10 3 -17 2 -17 -4 0 -6 -4 -8 -8 -5
-5 3 -24 -7 -43 -23 -19 -15 -42 -30 -51 -34 -10 -3 -18 -13 -18 -21 0 -8 -9
-18 -20 -21 -11 -3 -20 -12 -20 -20 0 -7 -7 -15 -15 -19 -8 -3 -15 -12 -15
-21 0 -13 -82 -142 -99 -155 -3 -3 -13 -18 -21 -35 -8 -16 -17 -32 -20 -35
-14 -14 -50 -70 -50 -79 0 -5 -3 -11 -8 -13 -34 -15 -125 -180 -137 -246 -3
-19 -12 -43 -19 -55 -8 -12 -17 -35 -21 -52 -11 -40 -10 -36 -26 -70 -15 -33
-17 -35 -55 -82 -14 -18 -28 -32 -32 -31 -4 1 -19 -4 -34 -10 -40 -17 -113 -7
-169 22 -27 14 -47 20 -43 14 5 -7 3 -8 -7 -2 -8 5 -16 9 -19 10 -11 2 -46 16
-62 25 -10 5 -25 9 -33 9 -8 0 -15 4 -15 8 0 4 -17 14 -37 21 -21 8 -40 18
-43 22 -3 5 -17 11 -30 13 -14 2 -27 5 -30 6 -3 2 -8 2 -13 1 -4 0 -7 3 -7 8
0 11 -134 6 -207 -8 -28 -6 -77 -20 -110 -31 -32 -12 -76 -26 -98 -32 -22 -6
-47 -17 -55 -24 -8 -7 -18 -13 -22 -14 -24 -4 -68 -23 -64 -28 8 -7 -20 -26
-67 -45 -21 -9 -35 -11 -31 -6 4 8 -1 9 -17 3 -13 -4 -30 -7 -36 -7 -7 0 -13
-5 -13 -11 0 -6 -4 -5 -9 3 -7 11 -15 9 -42 -11 -33 -24 -45 -28 -98 -29 -18
-1 -21 -3 -10 -10 10 -6 8 -9 -11 -10 -14 -1 -28 -1 -32 0 -5 0 -8 -4 -8 -9 0
-6 -16 -18 -35 -27 -19 -9 -31 -21 -28 -27 3 -6 3 -8 -2 -4 -4 4 -37 -9 -72
-28 -36 -19 -68 -33 -70 -30 -3 3 -14 1 -23 -4 -10 -5 -42 -13 -72 -16 -29 -4
-62 -11 -73 -17 -13 -7 -20 -7 -23 2 -5 16 -120 -47 -127 -70 -4 -11 -13 -19
-21 -19 -8 0 -19 -12 -24 -26 -6 -14 -23 -31 -40 -37 -17 -6 -30 -15 -30 -19
0 -40 -189 -148 -259 -148 -22 0 -42 -4 -46 -10 -3 -5 -12 -7 -19 -4 -7 3 -20
-2 -29 -10 -9 -9 -18 -16 -21 -16 -10 0 -46 -39 -46 -50 0 -5 -6 -10 -14 -10
-7 0 -16 -8 -20 -18 -13 -39 -93 -166 -125 -199 -12 -13 -19 -23 -16 -23 4 0
0 -7 -9 -15 -8 -8 -20 -15 -27 -15 -7 0 -9 -3 -6 -7 4 -4 -6 -12 -23 -19 -17
-7 -29 -17 -28 -23 3 -10 -60 -71 -74 -71 -4 0 -8 -6 -8 -13 0 -25 -45 -41
-122 -42 -43 -1 -78 2 -78 7 0 4 -13 8 -28 8 -15 0 -34 6 -41 12 -11 11 -12
10 -6 -2 8 -13 7 -13 -10 0 -10 8 -19 13 -19 11 -1 -2 -18 4 -40 13 -21 9 -42
13 -47 10 -5 -3 -9 -1 -9 4 0 5 -18 8 -41 8 -22 -1 -45 5 -51 12 -6 7 -25 11
-42 10 -38 -3 -125 11 -149 23 -11 7 -17 6 -17 -2 0 -6 -7 -8 -16 -5 -9 3 -29
-4 -47 -16 -17 -12 -27 -17 -23 -10 5 8 2 10 -8 6 -9 -3 -16 -9 -16 -13 0 -3
-18 -17 -40 -31 l-40 -24 0 -2748 0 -2748 3211 2 3211 3 39 65 c21 36 67 97
103 135 130 140 147 161 222 275 56 86 85 120 103 120 5 0 13 9 16 20 4 11 11
18 16 15 5 -4 9 -1 9 5 0 6 5 8 10 5 6 -3 10 -2 10 4 0 5 8 12 18 15 9 3 22
18 29 33 29 70 41 102 38 105 -2 2 -6 29 -9 61 -5 50 -22 95 -70 196 -6 13
-11 52 -10 85 1 51 8 76 45 151 25 50 57 111 72 136 15 25 32 61 39 79 15 46
88 170 98 170 5 0 12 9 15 20 4 11 11 18 16 15 5 -4 9 -1 9 4 0 6 8 19 18 29
73 73 117 184 108 272 -7 66 -13 96 -22 111 -3 6 -8 29 -10 52 -2 23 -5 49 -5
57 -1 8 -9 26 -18 40 -9 14 -16 39 -16 55 0 17 -3 32 -7 36 -5 3 -10 37 -13
77 -5 69 2 107 44 249 10 36 9 162 -3 181 -4 6 -9 22 -11 33 -3 12 -11 29 -20
39 -8 9 -13 19 -10 22 3 3 -1 11 -10 18 -8 7 -15 16 -15 21 0 10 -59 68 -124
123 -47 39 -86 100 -86 134 0 24 45 114 73 144 12 14 42 47 67 74 44 48 136
124 151 124 33 0 259 184 259 210 0 6 5 8 10 5 6 -3 10 1 10 10 0 9 5 13 10
10 6 -3 10 1 10 9 0 9 4 16 9 16 5 0 12 17 16 37 5 26 9 33 15 23 6 -10 10 -7
15 13 4 15 11 27 16 27 5 0 9 10 9 23 0 17 2 19 10 7 7 -11 11 -9 19 13 6 16
15 26 20 22 5 -3 11 5 13 17 2 13 9 22 16 20 7 -1 17 8 22 20 5 13 21 34 36
48 15 14 37 41 49 60 23 36 40 56 101 122 19 21 31 38 27 38 -4 0 7 10 25 21
17 12 32 24 32 28 0 4 18 16 40 27 22 10 40 24 40 30 0 6 10 16 23 23 21 12
57 75 65 116 8 40 8 185 0 185 -4 0 -8 6 -8 14 0 7 -14 53 -31 102 -16 49 -31
95 -31 102 -1 6 -6 12 -11 12 -5 0 -7 6 -4 14 3 8 -1 20 -9 26 -8 7 -14 20
-14 30 0 9 -9 29 -20 43 -11 14 -20 30 -20 36 0 6 -4 11 -10 11 -5 0 -10 6
-10 14 0 8 -6 21 -12 28 -34 37 -50 91 -53 183 -2 58 11 89 60 141 l36 38 87
0 c48 1 90 6 94 11 4 6 8 2 8 -9 0 -14 3 -16 14 -7 7 6 32 12 55 14 22 1 41 6
41 11 0 5 3 7 6 3 8 -8 76 27 94 47 7 9 27 23 45 31 35 17 148 122 188 175 15
19 27 31 27 25 0 -30 -146 -175 -219 -215 -22 -13 -41 -27 -41 -32 0 -11 -94
-57 -116 -57 -22 1 -74 -10 -86 -17 -4 -3 -17 0 -28 6 -11 6 -20 7 -20 2 0 -5
-20 -6 -45 -2 -27 4 -45 3 -45 -3 0 -5 -9 -7 -21 -4 -16 4 -32 -6 -65 -39 -26
-27 -41 -51 -37 -59 3 -8 0 -15 -6 -15 -10 0 -9 -81 2 -125 3 -11 6 -24 6 -30
1 -5 11 -26 23 -45 12 -19 22 -38 23 -42 0 -4 8 -16 17 -27 23 -27 48 -77 48
-96 0 -8 4 -15 9 -15 9 0 27 -57 23 -72 -1 -5 2 -8 7 -8 8 0 24 -55 18 -64 -1
-1 3 -9 10 -17 6 -8 13 -27 15 -44 1 -16 9 -36 16 -43 6 -7 12 -21 12 -31 0
-10 3 -21 7 -25 10 -9 10 -156 1 -156 -5 0 -8 -11 -8 -25 0 -34 -63 -110 -125
-149 -34 -21 -43 -29 -102 -87 -24 -22 -43 -45 -43 -50 0 -5 -4 -9 -9 -9 -5 0
-28 -28 -50 -62 -23 -35 -45 -68 -51 -75 -5 -7 -10 -17 -10 -23 0 -5 -4 -10
-10 -10 -5 0 -10 -7 -10 -16 0 -8 -4 -12 -10 -9 -5 3 -10 -1 -10 -9 0 -9 -4
-16 -9 -16 -5 0 -13 -9 -16 -21 -4 -11 -9 -18 -12 -15 -7 7 -33 -41 -33 -61 0
-8 -4 -12 -9 -8 -6 3 -14 -3 -20 -12 -8 -14 -10 -15 -11 -3 0 8 -9 -4 -21 -27
-12 -24 -25 -40 -30 -37 -5 3 -9 -2 -9 -11 0 -9 -20 -37 -45 -62 -25 -24 -45
-49 -45 -55 0 -6 -3 -9 -6 -5 -3 3 -21 -10 -40 -29 -19 -19 -41 -34 -49 -34
-8 0 -18 -6 -22 -14 -4 -7 -19 -19 -32 -26 -14 -7 -30 -17 -35 -21 -17 -14
-118 -79 -122 -79 -4 0 -102 -99 -138 -140 -28 -30 -66 -114 -66 -143 0 -17
11 -45 25 -62 13 -18 21 -35 18 -39 -4 -3 -1 -6 7 -6 11 0 128 -114 167 -163
28 -35 53 -109 58 -172 2 -23 5 -45 6 -50 1 -6 -1 -26 -5 -45 -4 -19 -8 -42
-10 -50 -2 -8 -5 -22 -8 -30 -20 -56 -41 -210 -29 -210 4 0 8 -14 9 -31 1 -17
6 -39 11 -48 4 -9 7 -26 6 -38 -1 -13 3 -23 8 -23 6 0 7 -3 4 -7 -4 -3 -2 -12
4 -19 6 -7 13 -28 15 -46 5 -44 12 -89 24 -168 6 -36 9 -83 6 -106 -7 -63 -54
-152 -126 -239 -69 -83 -132 -182 -145 -225 -6 -22 -29 -66 -97 -188 -30 -54
-53 -159 -40 -186 6 -13 9 -32 8 -42 -2 -11 1 -22 6 -25 5 -3 10 -12 11 -20 2
-8 5 -18 8 -24 15 -24 39 -115 44 -167 7 -57 -16 -168 -34 -168 -4 0 -14 -11
-21 -25 -7 -13 -17 -22 -22 -19 -4 3 -8 0 -8 -5 0 -6 -9 -11 -20 -11 -11 0
-20 -7 -20 -15 0 -8 -6 -15 -12 -15 -7 0 -24 -14 -38 -30 -14 -17 -35 -42 -48
-56 -12 -14 -28 -40 -36 -57 -7 -18 -36 -57 -64 -87 -28 -30 -52 -57 -52 -60
0 -3 -35 -43 -79 -88 -43 -46 -94 -110 -114 -142 l-35 -60 5149 0 c2832 0
5149 3 5149 6 0 10 -28 33 -33 28 -3 -4 -12 -2 -19 2 -7 5 -17 9 -23 11 -46
10 -59 13 -76 18 -11 4 -40 7 -64 7 -25 0 -47 4 -51 9 -3 5 -9 7 -13 5 -4 -3
-24 10 -44 29 -21 19 -41 35 -47 35 -25 0 -46 150 -30 220 6 25 12 56 15 69 2
12 10 30 17 39 7 8 12 17 11 18 -1 2 -1 9 1 16 10 32 19 74 18 81 -1 4 3 7 8
7 6 0 10 7 10 15 0 8 -5 15 -11 15 -6 0 -7 5 -2 13 13 20 14 47 1 47 -6 0 -8
3 -5 7 4 3 2 12 -5 20 -9 11 -7 12 8 6 16 -6 17 -5 6 9 -7 9 -15 26 -17 39 -3
12 -10 27 -16 33 -8 8 -8 4 0 -14 11 -23 11 -23 -3 -7 -8 11 -13 24 -10 31 2
6 -2 20 -10 31 -13 18 -15 19 -21 3 -6 -16 -8 -16 -23 -1 -10 9 -17 19 -17 22
-1 14 -17 31 -26 26 -5 -3 -6 1 -3 9 4 11 0 14 -14 11 -12 -2 -23 3 -26 12 -5
12 -9 13 -20 4 -10 -9 -17 -6 -30 14 -9 14 -23 35 -31 48 -13 20 -13 24 -1 24
8 0 12 -7 9 -16 -4 -14 -3 -14 5 -2 6 9 7 22 2 30 -4 9 -8 21 -9 26 -1 6 -5
10 -10 10 -5 0 -13 3 -17 8 -4 4 -2 7 3 7 6 0 10 8 8 18 -2 9 -4 19 -4 22 -1
3 -6 -2 -11 -10 -5 -8 -10 -10 -10 -4 0 6 3 14 7 18 4 3 8 17 10 29 2 17 1 19
-6 7 -5 -8 -7 -18 -4 -24 4 -5 1 -6 -6 -2 -7 5 -10 14 -7 21 2 7 2 16 -2 20
-4 3 -7 14 -7 23 0 9 -6 16 -12 15 -7 -2 -20 11 -28 27 -9 17 -20 28 -25 25
-5 -3 -11 4 -15 15 -3 11 -13 20 -21 20 -8 0 -12 5 -9 10 3 6 -1 10 -9 10 -9
0 -16 4 -16 8 0 5 -16 16 -36 25 -19 10 -32 22 -29 27 4 6 2 9 -3 8 -26 -7
-115 75 -136 125 -13 32 -19 83 -17 160 0 15 -4 27 -10 27 -6 0 -8 4 -5 8 10
17 -18 99 -50 142 -36 51 -86 93 -157 135 -27 15 -51 34 -54 41 -3 8 -9 12
-13 9 -4 -2 -23 10 -42 28 -49 46 -87 77 -94 76 -3 0 -30 22 -60 50 -30 27
-57 49 -59 48 -7 -4 -145 201 -145 215 0 5 -10 24 -22 41 -22 31 -43 66 -70
117 -7 14 -21 34 -31 45 -11 11 -31 38 -47 60 -15 22 -38 50 -51 62 -40 36
-64 65 -102 126 -20 31 -37 59 -37 61 0 7 -110 190 -117 195 -13 9 -43 71 -43
87 0 8 -4 14 -10 14 -5 0 -13 12 -16 28 -4 15 -15 39 -25 54 -11 14 -19 31
-19 37 0 16 -77 159 -107 199 -48 64 -109 120 -158 146 -27 14 -54 26 -59 26
-5 0 -23 11 -40 24 -17 12 -39 22 -49 20 -11 -1 -22 7 -29 22 -6 13 -15 24
-20 24 -4 0 -8 5 -8 11 0 6 -9 24 -21 41 -12 16 -19 32 -15 35 3 3 1 13 -4 23
-5 9 -11 37 -14 61 -5 58 -29 111 -82 185 -24 34 -40 64 -37 67 3 4 -2 9 -11
13 -9 3 -16 11 -16 18 -1 6 -21 31 -45 56 -25 25 -45 50 -45 56 0 21 -180 178
-180 158 0 -5 -4 -4 -8 1 -9 12 -69 55 -77 55 -6 0 -84 52 -113 75 -63 49
-117 115 -142 170 -9 22 -25 46 -34 54 -9 7 -16 19 -16 25 -1 13 -98 95 -143
118 -41 22 -91 79 -117 133 -16 34 -19 56 -16 120 3 44 9 81 15 83 6 2 9 8 6
12 -3 5 3 23 14 41 11 18 18 36 15 41 -3 4 0 16 5 27 7 12 7 21 1 23 -5 2 -13
26 -16 53 -4 28 -12 56 -17 63 -6 8 -13 24 -14 35 -2 12 -8 26 -13 31 -6 6
-10 17 -10 26 0 9 -9 25 -20 35 -11 10 -17 21 -14 26 3 5 0 18 -6 29 -14 26
-19 50 -25 118 -7 76 -25 143 -48 177 -20 29 -77 89 -77 81 0 -2 -25 21 -55
50 -30 30 -59 54 -63 54 -5 0 -15 11 -22 25 -7 13 -16 23 -19 22 -3 -2 -22 13
-41 32 -19 18 -28 30 -20 25 22 -12 -95 105 -133 133 -18 13 -32 27 -32 30 0
9 -66 75 -95 95 -14 10 -41 30 -59 45 -19 16 -31 21 -27 13 7 -13 6 -13 -6 0
-7 8 -25 21 -40 27 -16 7 -28 20 -28 31 0 13 -12 22 -38 30 -21 6 -47 20 -59
31 -11 11 -37 28 -57 39 -19 11 -33 22 -30 24 3 3 -11 16 -30 28 -25 15 -36
29 -36 45 0 12 -7 26 -16 29 -11 4 -14 13 -10 30 4 15 0 28 -9 36 -8 7 -12 17
-9 22 4 6 3 13 -2 17 -5 3 -26 32 -47 64 -24 37 -43 57 -52 53 -8 -3 -15 0
-17 6 -5 14 -158 10 -158 -4 0 -5 -3 -7 -7 -7 -5 1 -28 -2 -53 -6 -133 -24
-251 7 -330 86 -78 79 -103 168 -95 339 2 58 7 118 11 133 9 41 13 73 19 152
11 127 11 165 3 167 -4 2 -10 19 -13 38 -9 62 -11 70 -23 82 -7 7 -12 18 -12
25 0 7 -5 13 -11 13 -5 0 -7 5 -4 10 3 6 2 10 -4 10 -6 0 -8 6 -6 13 5 13 -49
77 -66 77 -6 0 -7 5 -4 11 4 6 -2 13 -13 16 -12 3 -18 11 -16 18 3 7 -4 16
-15 20 -12 3 -19 10 -16 15 3 4 -2 10 -10 14 -8 3 -15 12 -15 21 0 8 -3 15 -7
15 -5 0 -16 14 -25 31 -10 17 -12 27 -5 23 6 -4 1 5 -13 19 -14 14 -36 41 -50
58 -36 46 -132 142 -159 159 -35 22 -72 51 -109 85 -36 32 -172 206 -172 219
0 4 -29 40 -65 78 -69 75 -91 113 -27 48 53 -54 100 -112 137 -170 34 -53 106
-141 139 -169 10 -9 28 -25 40 -36 12 -11 39 -29 61 -40 43 -22 256 -231 248
-242 -2 -2 0 -2 3 0 3 1 17 -18 30 -43 13 -25 23 -41 24 -36 0 5 7 3 15 -4 8
-7 12 -17 8 -23 -3 -6 -1 -7 5 -3 7 4 12 2 12 -4 0 -6 4 -8 10 -5 6 3 7 -1 4
-9 -3 -9 -1 -16 5 -16 6 0 11 -7 11 -16 0 -8 5 -12 10 -9 6 3 10 1 10 -5 0 -6
4 -8 10 -5 5 3 10 0 10 -8 0 -8 9 -22 20 -32 10 -9 19 -20 18 -24 -3 -24 4
-41 14 -35 6 4 8 3 5 -3 -4 -6 1 -28 10 -49 9 -22 15 -51 14 -66 -1 -16 2 -28
7 -28 8 0 12 -34 15 -110 1 -34 -13 -181 -18 -190 -18 -29 -28 -305 -14 -370
12 -55 75 -147 114 -169 16 -9 35 -21 42 -28 35 -32 195 -28 283 7 28 11 50
17 50 15 0 -3 14 1 30 10 20 10 30 12 30 4 0 -8 4 -8 12 -1 7 5 32 13 56 17
34 5 47 3 63 -11 12 -11 19 -13 19 -5 0 15 13 3 51 -49 30 -41 43 -70 40 -89
-1 -7 2 -10 9 -6 7 4 10 1 9 -6 -3 -19 11 -71 24 -86 5 -7 6 -13 1 -13 -5 0 1
-7 13 -15 11 -8 23 -25 27 -39 3 -14 16 -26 31 -30 14 -4 25 -13 25 -21 0 -7
5 -17 12 -21 7 -5 8 -2 3 7 -4 8 8 -2 26 -22 19 -20 44 -39 55 -43 26 -8 94
-70 94 -86 0 -6 4 -9 9 -5 5 3 77 -61 160 -142 83 -82 181 -175 217 -208 37
-33 83 -75 103 -92 19 -18 40 -33 46 -33 6 0 18 -8 26 -18 9 -9 36 -33 59 -52
79 -63 104 -102 116 -176 3 -22 8 -42 10 -46 2 -4 0 -9 -6 -13 -6 -4 -8 -10
-5 -15 3 -5 8 -26 10 -47 2 -21 6 -48 9 -59 5 -25 52 -127 63 -137 7 -7 31
-68 38 -97 2 -8 4 -15 5 -15 6 0 12 -50 12 -101 0 -36 -7 -75 -16 -93 -9 -17
-17 -34 -17 -38 -1 -5 -6 -19 -11 -33 -41 -106 -15 -188 85 -264 26 -20 52
-37 58 -39 27 -6 168 -143 169 -164 0 -6 15 -31 34 -55 18 -25 35 -50 37 -56
6 -18 116 -107 157 -128 20 -11 56 -32 79 -47 24 -15 43 -26 43 -23 0 6 45
-31 84 -69 31 -31 97 -106 158 -180 29 -35 69 -82 103 -119 28 -30 85 -135 84
-153 -1 -3 5 -9 11 -13 7 -4 14 -25 17 -46 3 -22 9 -41 13 -44 4 -3 11 -15 14
-28 9 -27 62 -80 171 -169 76 -63 169 -181 197 -253 5 -14 15 -32 23 -40 7 -8
36 -60 65 -114 50 -96 69 -126 168 -270 26 -39 55 -86 66 -105 10 -20 23 -41
30 -46 6 -6 26 -30 45 -55 37 -49 43 -55 97 -115 20 -22 40 -49 45 -60 5 -11
23 -40 39 -65 16 -25 34 -56 40 -70 20 -44 167 -210 188 -210 5 0 20 -11 33
-25 13 -13 29 -25 36 -25 18 0 213 -201 213 -220 0 -5 9 -14 20 -20 11 -6 31
-22 46 -35 15 -14 31 -25 35 -25 15 0 154 -144 169 -175 8 -16 25 -47 38 -69
13 -21 18 -35 10 -30 -7 4 -5 -2 5 -13 9 -11 25 -42 34 -69 9 -27 25 -55 35
-62 10 -7 16 -18 13 -23 -4 -5 -1 -9 4 -9 6 0 11 -7 11 -16 0 -8 4 -13 9 -10
5 3 11 -3 14 -14 3 -11 11 -19 19 -18 7 2 12 -3 11 -9 -2 -7 3 -13 11 -13 8 0
22 -7 30 -16 9 -8 16 -13 16 -9 0 4 7 -1 16 -9 8 -9 20 -14 25 -11 5 4 9 1 9
-5 0 -6 4 -9 8 -6 5 3 18 -2 28 -12 11 -9 26 -18 34 -20 8 -2 18 -8 21 -14 4
-6 12 -9 20 -6 7 2 24 -8 38 -22 14 -15 32 -25 38 -23 7 3 16 -2 19 -11 3 -9
12 -16 20 -16 8 0 14 -4 14 -10 0 -5 9 -10 20 -10 11 0 20 -5 20 -12 0 -6 3
-9 6 -5 4 3 13 -1 21 -9 8 -8 19 -12 24 -9 5 4 9 1 9 -4 0 -6 7 -11 15 -11 9
0 12 -6 8 -15 -4 -12 0 -15 19 -11 21 3 28 -2 41 -33 9 -20 30 -52 47 -70 32
-37 31 -57 -3 -40 -16 7 -13 3 8 -15 25 -22 27 -26 12 -32 -13 -5 -15 -10 -6
-20 6 -7 7 -19 3 -26 -12 -20 -12 -92 0 -100 7 -5 7 -8 0 -8 -11 0 -11 -51 1
-69 3 -6 0 -11 -7 -11 -9 0 -10 -3 -2 -8 11 -7 14 -72 4 -72 -3 0 -5 -17 -4
-37 1 -21 -1 -42 -4 -48 -3 -5 -7 -21 -8 -35 -1 -14 -11 -44 -23 -67 -11 -23
-21 -49 -21 -57 0 -8 -6 -17 -13 -19 -9 -4 -9 -6 1 -6 7 -1 4 -9 -8 -21 -12
-12 -18 -25 -15 -31 4 -5 1 -16 -5 -24 -10 -12 -10 -15 0 -15 7 0 10 -8 7 -20
-3 -11 -1 -20 4 -20 5 0 9 -8 9 -18 0 -10 12 -29 27 -43 14 -13 23 -17 18 -9
-5 8 3 5 17 -8 14 -13 32 -24 39 -26 8 -1 24 -8 37 -14 12 -7 22 -10 22 -7 0
3 15 -2 33 -12 17 -9 37 -18 43 -19 31 -5 214 -120 214 -134 0 -28 99 -30
1541 -30 l1479 0 0 3809 0 3808 -21 27 c-14 18 -16 26 -7 26 9 1 8 4 -4 13
-10 9 -16 26 -14 50 1 20 -2 37 -5 37 -9 0 0 78 10 99 5 9 6 21 4 28 -2 7 1
22 8 35 18 32 20 51 6 60 -9 6 -9 10 -1 16 6 4 10 18 9 32 -1 14 1 33 6 42 6
10 5 19 -1 23 -6 4 -7 11 -4 17 11 18 11 72 -1 80 -6 5 -5 8 3 8 10 0 10 5 2
20 -6 11 -8 20 -5 20 7 0 -23 47 -49 77 -11 13 -26 23 -33 23 -7 0 -13 5 -13
10 0 6 -15 18 -34 27 -23 11 -32 21 -28 31 3 10 1 13 -6 8 -7 -4 -12 -2 -12 3
0 6 -13 11 -30 11 -16 0 -30 5 -30 10 0 6 -9 10 -19 10 -11 0 -26 6 -33 13
-16 15 -57 20 -72 8 -6 -5 -23 -7 -39 -5 -15 1 -25 -1 -22 -7 6 -9 -8 -13 -32
-10 -7 1 -13 -6 -14 -16 0 -10 -3 -13 -5 -6 -6 13 -34 6 -34 -9 0 -5 5 -6 10
-3 6 3 10 -1 10 -9 0 -12 -5 -14 -26 -6 -16 7 -23 7 -19 0 3 -6 -1 -10 -9 -10
-8 0 -18 4 -21 10 -4 6 -15 4 -30 -6 -14 -9 -26 -11 -29 -5 -8 12 -42 3 -57
-15 -10 -12 -15 -12 -30 2 -11 10 -19 12 -19 6 0 -6 -7 -9 -16 -5 -9 3 -19 1
-23 -5 -4 -7 -19 -6 -46 4 -33 11 -42 11 -55 -1 -11 -10 -20 -11 -33 -4 -12 7
-22 7 -31 0 -7 -6 -31 -10 -52 -10 -21 1 -59 -4 -83 -10 -23 -7 -49 -10 -57
-7 -8 3 -14 1 -14 -5 0 -6 -9 -8 -20 -4 -11 3 -20 2 -20 -3 0 -6 -31 -8 -76
-6 -71 3 -75 2 -69 -16 6 -17 3 -19 -25 -14 -26 6 -29 4 -23 -11 5 -14 3 -17
-10 -12 -12 4 -14 2 -10 -10 4 -10 2 -14 -4 -10 -6 4 -22 3 -35 -2 -12 -4 -32
-5 -43 -1 -24 9 -67 -9 -58 -24 4 -6 -3 -3 -14 7 -11 9 -23 14 -26 11 -4 -4
-14 -1 -24 7 -15 12 -16 12 -8 -1 8 -13 7 -13 -9 0 -23 18 -49 22 -39 7 7 -13
-27 12 -38 26 -3 5 -10 9 -15 10 -5 1 -8 7 -8 14 1 6 -8 10 -20 7 -25 -4 -38
3 -55 31 l-13 20 6 -20 c6 -20 6 -20 -9 -1 -8 11 -15 24 -15 29 0 4 -4 5 -10
2 -6 -3 -10 1 -10 9 0 9 -5 16 -11 16 -6 0 -8 7 -5 16 3 8 2 13 -2 10 -4 -2
-18 2 -32 10 -15 8 -19 14 -10 14 12 1 11 3 -3 14 -14 11 -15 15 -5 19 10 4
10 6 -1 6 -11 1 -11 4 -1 16 10 12 9 15 -6 15 -16 0 -17 2 -4 10 10 6 11 10 3
10 -9 0 -10 7 -3 25 8 21 7 25 -8 25 -14 0 -15 2 -2 10 12 8 12 10 -3 16 -13
5 -15 10 -7 19 8 10 6 15 -9 20 -12 3 -21 15 -21 25 0 10 -7 20 -15 24 -8 3
-15 11 -15 18 0 13 -11 21 -77 53 -18 8 -33 19 -33 24 0 4 -18 16 -40 26 -21
10 -48 26 -60 37 -11 10 -20 15 -20 11 0 -4 -18 12 -39 35 -22 23 -44 42 -50
42 -6 0 -11 7 -11 15 0 8 -5 15 -11 15 -5 0 -8 4 -4 9 6 11 -33 51 -49 51 -5
0 -6 3 -3 7 4 3 -12 18 -34 31 -23 14 -50 33 -60 43 -11 11 -32 19 -48 19 -16
0 -31 6 -34 14 -7 17 -47 28 -47 13 0 -8 -3 -7 -9 1 -4 8 -28 14 -55 15 -25 0
-46 5 -46 10 0 4 -5 5 -10 2 -5 -3 -10 0 -10 7 0 7 -5 5 -11 -6 -9 -15 -13
-16 -20 -5 -5 9 -9 10 -9 2 0 -12 -24 -12 -36 0 -4 3 -15 2 -26 -4 -10 -5 -24
-7 -30 -3 -6 4 -8 3 -5 -3 7 -10 -20 -28 -35 -25 -5 1 -8 -3 -8 -9 0 -6 -7 -8
-17 -5 -10 4 -14 4 -10 0 4 -4 -7 -15 -23 -26 -17 -10 -29 -22 -28 -27 2 -5
-1 -8 -5 -8 -10 2 -41 -63 -38 -80 1 -7 -3 -13 -10 -13 -7 0 -9 -9 -5 -25 5
-20 3 -25 -13 -25 -14 0 -19 -5 -15 -15 4 -10 0 -15 -11 -15 -9 0 -14 -4 -11
-9 10 -16 -17 -19 -54 -6 -19 6 -42 11 -50 10 -8 0 -21 5 -28 12 -7 7 -22 13
-33 13 -10 0 -19 5 -19 11 0 5 -5 7 -10 4 -6 -3 -10 -1 -10 5 0 6 -5 8 -10 5
-5 -3 -10 1 -10 9 0 10 -6 13 -15 10 -8 -4 -15 -1 -15 5 0 6 -7 11 -15 11 -8
0 -15 5 -15 10 0 6 -8 10 -19 10 -10 0 -30 9 -45 21 -15 11 -33 19 -40 16 -8
-3 -22 1 -33 8 -10 8 -28 15 -40 15 -12 0 -25 5 -28 10 -3 6 -19 10 -34 10
-15 0 -32 5 -37 10 -6 6 -51 11 -100 11 -107 0 -124 -2 -124 -13 0 -4 -3 -7
-7 -7 -25 4 -43 -2 -37 -13 5 -7 2 -9 -9 -5 -9 3 -28 -4 -44 -16 -23 -19 -39
-22 -101 -20 -40 1 -79 6 -85 11 -7 5 -28 13 -47 17 -19 4 -41 12 -47 17 -7 6
-13 8 -13 5 0 -3 -21 0 -47 7 -27 7 -83 12 -125 11 -43 0 -78 3 -78 6 0 3 -12
6 -27 7 -16 0 -41 7 -57 16 -16 8 -33 13 -38 10 -4 -3 -11 2 -14 10 -3 9 -10
14 -14 11 -5 -3 -11 4 -15 15 -4 11 -11 18 -16 15 -5 -4 -9 -3 -9 2 0 4 -14
14 -30 21 -17 8 -27 18 -24 24 4 6 -1 8 -12 4 -20 -6 -46 5 -46 20 1 5 -6 8
-15 6 -9 -2 -19 1 -22 6 -9 13 -61 24 -61 13 0 -6 -7 -8 -15 -5 -8 3 -23 0
-33 -8 -19 -13 -22 -18 -22 -37 0 -4 -10 -8 -22 -7 -16 1 -22 -4 -20 -15 1
-11 -4 -16 -15 -15 -10 0 -18 -6 -18 -14 0 -8 -8 -18 -18 -22 -10 -4 -16 -12
-12 -17 3 -5 0 -13 -6 -16 -5 -4 -8 -13 -5 -21 3 -8 1 -13 -3 -11 -5 1 -9 -2
-9 -6 -1 -15 -37 -36 -47 -27 -6 5 -21 2 -35 -7 -14 -8 -17 -12 -7 -9 10 3 15
2 12 -4 -9 -15 -65 -4 -79 15 -7 10 -24 20 -37 22 -13 2 -30 11 -36 20 -7 9
-16 14 -19 10 -8 -8 -34 11 -34 25 0 5 6 6 13 2 6 -4 8 -3 4 1 -7 8 -28 15
-54 17 -7 1 -10 5 -8 9 3 4 -9 12 -26 18 -17 6 -28 15 -25 20 3 5 -1 11 -9 15
-8 3 -17 0 -21 -6 -5 -8 -10 -7 -18 3 -12 15 -42 20 -121 19 -70 -1 -85 -3
-85 -11 0 -7 -44 -22 -66 -24 -6 0 -18 -6 -26 -13 -8 -6 -35 -19 -59 -27 -54
-19 -113 -47 -117 -57 -2 -5 -12 -8 -22 -8 -10 0 -25 -6 -32 -13 -7 -7 -31
-15 -53 -17 -76 -8 -460 -1 -505 9 -88 19 -120 29 -159 49 -21 11 -42 18 -45
15 -3 -4 -6 -2 -6 3 0 11 -27 14 -165 18 -114 3 -177 12 -209 28 -14 8 -17 7
-10 -3 4 -7 -6 -3 -23 9 -17 12 -37 22 -45 22 -18 0 -131 114 -122 123 4 4 2
7 -4 7 -7 0 -12 7 -12 15 0 8 -7 15 -16 15 -8 0 -13 4 -9 9 3 5 -3 17 -12 27
-9 9 -18 24 -20 33 -1 8 -7 17 -12 19 -6 2 -11 10 -11 18 0 8 -5 14 -10 14 -6
0 -18 16 -27 35 -9 19 -19 32 -23 30 -4 -2 -16 4 -27 14 -32 30 -82 49 -218
81 -71 17 -138 32 -148 35 -9 2 -22 7 -28 10 -23 15 -77 12 -139 -8 -36 -11
-66 -24 -68 -29 -2 -4 -12 -8 -22 -8 -10 0 -20 -5 -22 -10 -2 -6 -13 -12 -26
-13 -12 0 -22 -5 -22 -9 0 -12 -57 -38 -84 -38 -14 0 -28 -4 -31 -10 -3 -5
-16 -10 -28 -10 -26 -1 -92 -8 -92 -10 0 -1 -22 -3 -50 -5 -27 -1 -50 -3 -50
-5 0 -1 -16 -3 -35 -4 -19 -2 -42 -5 -50 -9 -20 -7 -71 -20 -92 -22 -10 -2
-23 -3 -29 -4 -5 0 -8 -4 -6 -8 3 -5 -17 -8 -45 -8 -27 0 -52 -3 -54 -6 -6
-10 -153 0 -174 11 -9 5 -20 7 -23 3 -4 -3 -12 -1 -19 4 -11 9 -57 24 -80 27
-3 1 -9 4 -13 8 -4 4 -13 4 -21 1 -8 -3 -14 0 -14 6 0 7 -10 9 -26 5 -19 -5
-25 -4 -20 5 5 8 0 8 -18 1 -20 -7 -24 -6 -20 5 4 11 -1 13 -22 9 -15 -3 -34
-2 -43 2 -9 4 -19 8 -23 8 -3 1 -10 4 -14 9 -13 13 -23 7 -17 -10 4 -12 0 -11
-11 5 -10 12 -23 22 -31 22 -8 0 -21 10 -29 22 -9 12 -16 18 -16 13 0 -6 -5
-2 -11 8 -6 9 -16 14 -22 11 -8 -5 -8 -3 1 7 18 20 15 26 -20 34 -23 5 -27 9
-15 12 25 6 21 23 -5 24 -22 0 -22 1 -3 9 19 8 19 9 1 9 -15 1 -16 4 -7 15 9
11 8 15 -4 20 -9 3 -14 10 -11 15 3 5 -2 12 -11 15 -15 6 -14 8 2 20 16 12 16
13 1 19 -9 4 -16 11 -16 18 0 6 7 9 15 6 17 -7 30 9 15 18 -5 3 -20 8 -32 10
-12 3 -26 10 -32 16 -8 9 -8 10 2 5 6 -4 12 -3 12 1 0 5 18 7 41 5 31 -3 42
-9 49 -28 5 -13 7 -31 4 -39 -4 -9 -1 -15 7 -15 11 0 11 -3 -1 -10 -12 -8 -11
-10 8 -10 24 0 30 -15 10 -23 -7 -3 -2 -6 12 -6 19 -1 22 -3 10 -11 -12 -8
-12 -10 3 -16 9 -3 15 -10 12 -15 -3 -4 11 -19 32 -33 29 -20 33 -26 18 -27
-20 0 -20 0 0 -9 12 -4 27 -15 34 -24 7 -9 18 -16 24 -16 5 0 2 10 -9 22 -17
20 -16 20 13 -2 18 -14 32 -30 32 -37 1 -6 6 -15 13 -19 6 -4 8 -3 4 4 -3 6
-2 13 3 16 5 3 11 0 14 -8 3 -9 16 -13 31 -12 14 2 26 0 26 -4 0 -4 16 -11 36
-14 19 -4 37 -13 40 -20 3 -7 16 -12 30 -10 13 1 24 -3 24 -9 0 -5 3 -7 6 -4
4 3 15 2 26 -4 10 -5 31 -12 46 -15 91 -15 138 -21 142 -15 3 3 25 6 50 5 27
0 57 6 75 17 29 17 109 36 129 31 4 -2 13 4 20 13 6 8 28 16 48 17 23 2 38 8
38 16 0 9 5 10 18 3 13 -7 23 -6 30 1 9 9 12 9 12 -1 0 -7 4 -10 8 -7 7 4 76
16 114 19 9 1 15 4 12 8 -5 8 21 19 44 19 9 0 33 14 52 30 19 16 41 30 48 30
6 0 12 5 12 10 0 6 6 10 14 10 8 0 22 7 30 16 9 8 16 12 16 9 0 -4 11 0 25 9
13 9 36 17 50 18 14 1 25 5 25 9 0 9 129 2 143 -8 14 -11 92 -35 127 -40 14
-2 72 -6 130 -8 194 -9 218 -14 240 -56 6 -11 16 -16 22 -13 7 5 9 2 5 -9 -4
-10 0 -18 12 -22 12 -3 22 -23 30 -58 15 -65 53 -167 63 -167 5 0 8 -7 8 -16
0 -18 23 -44 40 -44 6 0 15 -11 22 -25 6 -13 15 -22 20 -19 5 3 16 0 24 -7 27
-22 115 -29 214 -17 80 10 209 -3 265 -27 65 -27 91 -35 120 -35 17 0 46 -1
65 -3 20 -2 42 3 52 11 10 8 18 11 18 7 0 -5 9 1 20 13 12 12 25 22 31 22 6 0
7 5 4 10 -3 6 1 10 9 10 9 0 16 5 16 11 0 6 7 8 16 5 10 -4 13 -2 7 7 -13 20
-10 57 5 57 12 0 12 2 1 17 -11 13 -11 17 -1 20 6 3 12 11 12 19 0 8 5 14 10
14 6 0 10 14 10 30 0 18 5 30 13 30 8 0 23 10 35 23 17 18 19 26 10 35 -9 9
-6 12 16 12 15 0 25 4 21 10 -3 6 -1 10 5 10 6 0 8 5 5 10 -4 6 8 13 25 16 22
5 29 11 26 21 -5 12 0 13 26 8 26 -6 30 -5 25 9 -7 17 13 18 26 1 4 -6 10 -5
16 4 9 13 24 12 65 -5 14 -5 17 -4 11 5 -6 10 -3 11 13 2 11 -6 29 -11 40 -11
10 0 29 -9 42 -20 13 -11 29 -20 37 -20 7 0 13 -4 13 -10 0 -5 9 -10 19 -10
11 0 21 -3 23 -7 2 -5 17 -18 35 -30 59 -42 202 -80 328 -88 22 -2 85 -6 140
-10 170 -12 180 -13 188 -1 6 8 10 7 14 -2 2 -6 10 -9 16 -5 12 7 24 11 62 16
11 2 39 9 61 15 24 7 76 10 123 8 46 -2 79 0 75 5 -9 15 13 10 26 -6 7 -9 19
-14 26 -11 7 3 16 1 19 -5 4 -5 10 -7 15 -4 5 3 17 -2 27 -12 10 -10 28 -17
41 -17 17 1 22 -3 17 -14 -5 -13 -3 -13 12 -1 11 9 14 10 9 2 -4 -8 -1 -13 9
-13 9 0 13 -5 10 -10 -4 -6 3 -9 17 -6 14 2 28 -4 36 -15 19 -27 68 -34 100
-13 24 15 25 16 13 1 -8 -10 -9 -17 -3 -17 6 0 14 5 17 11 4 6 13 8 21 5 7 -3
16 0 20 6 4 7 9 6 15 -3 7 -12 12 -12 30 -1 11 7 23 11 25 9 3 -3 21 -1 40 3
22 5 34 4 34 -2 0 -7 21 -9 59 -5 34 4 61 2 63 -3 2 -5 23 -9 48 -10 67 -1
225 13 225 20 0 1 11 3 25 6 14 2 30 11 36 19 6 8 13 12 16 9 9 -8 79 66 73
77 -4 5 -1 9 5 9 6 0 8 4 5 10 -3 5 0 20 7 32 12 24 16 37 22 75 2 13 8 29 15
36 6 8 8 17 4 20 -3 4 -1 7 6 7 7 0 9 5 6 10 -3 6 -1 10 5 10 6 0 9 4 5 9 -3
6 1 13 8 18 8 4 19 18 26 31 6 12 18 22 26 22 8 0 15 4 15 10 0 11 57 29 115
37 22 3 47 9 56 14 10 5 51 3 101 -5 68 -11 113 -28 224 -81 77 -38 150 -76
164 -85 14 -10 39 -21 57 -24 17 -4 37 -14 44 -22 6 -8 16 -14 21 -14 32 0
158 -74 208 -122 14 -13 45 -39 70 -57 25 -19 52 -41 60 -50 31 -32 117 -106
140 -121 13 -8 35 -25 49 -38 14 -13 49 -36 76 -52 28 -17 57 -34 65 -39 18
-11 49 -23 70 -26 16 -2 145 -36 219 -57 24 -7 56 -24 71 -38 15 -14 39 -31
53 -39 15 -8 27 -19 27 -25 0 -7 9 -18 20 -26 11 -8 20 -20 20 -27 0 -7 5 -13
10 -13 6 0 10 -7 10 -15 0 -8 5 -15 10 -15 6 0 10 -6 10 -14 0 -15 27 -29 40
-21 4 3 10 -5 14 -18 5 -17 8 -19 15 -8 5 7 11 9 14 4 9 -14 77 -15 77 -1 0 9
3 9 12 0 15 -15 52 -16 42 -1 -4 8 0 8 15 0 17 -9 30 -7 73 16 48 24 107 73
90 73 -4 0 1 5 12 11 14 9 15 13 6 19 -9 6 -6 10 9 15 11 3 21 13 21 21 0 8 5
14 11 14 5 0 7 5 4 10 -3 6 -2 10 4 10 6 0 8 7 5 15 -4 9 0 15 10 15 8 0 20 9
26 20 6 11 18 20 28 21 11 0 12 2 4 6 -23 9 110 66 163 70 111 8 135 8 135 0
0 -4 9 -3 20 3 15 8 20 8 20 -2 0 -8 3 -9 10 -2 7 7 29 8 55 4 25 -4 47 -4 50
-2 3 3 13 7 23 8 9 1 35 5 57 9 22 3 50 6 62 6 12 -1 25 4 28 10 5 7 11 6 20
-1 8 -7 16 -7 19 -2 3 6 27 8 53 6 106 -10 141 -9 140 1 -1 5 4 9 11 8 22 -5
27 -5 55 -4 20 1 26 5 21 14 -6 9 -4 9 8 -1 14 -11 17 -10 22 6 4 10 13 19 21
20 8 1 22 3 30 4 13 1 15 99 15 818 0 449 -3 819 -6 823 -3 3 -37 -10 -75 -30
-37 -19 -74 -31 -80 -27 -8 4 -9 3 -5 -4 4 -8 0 -12 -11 -12 -11 0 -25 -6 -32
-13 -11 -9 -12 -9 -7 0 5 9 -1 9 -21 -1 -47 -23 -94 -36 -87 -24 5 7 2 8 -7 2
-17 -11 -36 -11 -71 -2 -16 4 -30 2 -34 -4 -4 -7 -9 -6 -14 2 -4 7 -21 13 -38
13 -17 1 -28 5 -26 9 5 8 1 9 -48 12 -14 0 -29 4 -33 8 -4 4 -14 4 -23 1 -11
-5 -13 -3 -7 8 7 11 6 12 -6 3 -8 -6 -36 -9 -64 -7 -56 5 -54 5 -150 -1 -76
-4 -159 -14 -189 -23 -12 -3 -16 -1 -12 6 4 6 0 11 -11 12 -26 1 -78 34 -76
48 4 15 -14 14 -20 -1 -3 -8 -6 -6 -6 5 -1 10 -9 17 -22 17 -18 0 -19 3 -9 15
10 12 9 16 -6 21 -11 3 -32 12 -49 19 -16 8 -34 14 -40 15 -5 1 -18 6 -27 11
-11 6 -18 5 -21 -4 -4 -9 -6 -9 -6 1 -1 9 -7 8 -26 -4 -14 -9 -34 -14 -45 -11
-11 3 -18 1 -14 -4 3 -5 2 -9 -3 -10 -4 0 -17 -2 -28 -4 -11 -2 -38 -6 -60 -8
-22 -2 -47 -7 -55 -9 -76 -27 -150 -38 -150 -24 0 7 -3 8 -8 1 -4 -6 -61 -11
-137 -12 -79 0 -142 -6 -160 -13 -16 -7 -39 -14 -51 -15 -11 -2 -40 -9 -65
-16 -69 -19 -87 -21 -213 -23 -130 -3 -231 17 -356 71 -8 3 -19 7 -25 7 -5 1
-21 7 -33 14 -24 14 -64 24 -92 25 -8 0 -20 3 -26 8 -6 5 -26 9 -45 10 -19 2
-40 7 -46 12 -16 12 -113 15 -113 4 0 -4 -8 -4 -17 1 -11 7 -20 6 -28 -2 -6
-6 -34 -11 -61 -11 -27 0 -52 -4 -56 -10 -5 -6 -17 -6 -35 1 -15 5 -54 9 -85
8 -37 -1 -58 3 -58 10 0 7 -3 7 -8 1 -8 -11 -172 -14 -172 -2 0 4 -5 7 -11 7
-5 0 -8 -4 -5 -8 3 -5 -1 -9 -9 -9 -8 0 -12 4 -9 9 11 17 -140 5 -174 -14 -19
-10 -38 -16 -43 -12 -5 3 -12 -2 -15 -11 -6 -14 -8 -14 -20 2 -9 12 -16 14
-21 7 -14 -20 -80 -36 -101 -25 -11 6 -24 6 -33 0 -19 -12 -32 -11 -24 1 3 6
-4 10 -17 11 -40 1 -82 10 -88 18 -3 5 -20 8 -39 9 -19 0 -37 6 -41 11 -4 7
-23 8 -51 5 -24 -4 -55 -8 -69 -9 -36 -4 -36 -4 -20 -15 11 -7 7 -10 -17 -10
-26 0 -33 -4 -33 -20 0 -11 -5 -20 -11 -20 -5 0 -7 5 -3 12 4 7 3 8 -5 4 -7
-4 -11 -15 -10 -24 1 -10 -5 -33 -14 -52 -8 -19 -13 -38 -11 -42 3 -5 0 -8 -5
-8 -6 0 -11 -7 -11 -15 0 -8 -5 -15 -11 -15 -5 0 -8 -4 -5 -9 7 -10 -11 -62
-23 -71 -16 -11 -60 -84 -55 -92 3 -5 0 -7 -6 -6 -7 2 -14 -5 -15 -16 -2 -10
-13 -26 -25 -35 -12 -9 -33 -26 -46 -39 -13 -13 -38 -28 -54 -34 -17 -5 -27
-15 -24 -20 4 -6 1 -9 -7 -6 -7 2 -22 -4 -33 -13 -10 -10 -22 -16 -26 -14 -4
3 -13 -2 -20 -10 -7 -8 -16 -12 -21 -9 -5 3 -9 0 -9 -7 0 -7 -3 -9 -6 -6 -4 3
-15 2 -25 -3 -12 -7 -19 -6 -22 3 -3 7 -6 4 -6 -6 -1 -10 -5 -16 -10 -12 -5 3
-13 1 -16 -5 -5 -8 -11 -7 -21 1 -10 8 -14 8 -14 1 0 -7 -7 -9 -17 -5 -11 5
-14 3 -8 -6 6 -10 3 -11 -11 -4 -17 9 -77 16 -129 16 -61 0 -274 -13 -300 -18
-46 -10 -125 -13 -125 -6 0 4 -8 8 -17 9 -10 1 -27 3 -38 4 -11 2 -26 9 -33
16 -7 6 -22 12 -33 12 -10 0 -19 4 -19 9 0 6 -9 8 -20 6 -11 -2 -18 0 -15 6 4
5 -5 9 -19 9 -20 0 -24 4 -19 18 3 9 3 14 -2 10 -4 -4 -16 -3 -26 3 -13 6 -19
6 -19 0 0 -6 -7 -8 -15 -5 -8 4 -15 12 -15 19 0 8 -4 16 -9 19 -5 4 -7 -3 -4
-14 3 -11 0 -20 -6 -20 -6 0 -11 8 -11 18 0 9 -3 13 -8 7 -4 -6 -20 -11 -37
-12 -16 -1 -31 -6 -33 -13 -4 -11 -88 -52 -96 -47 -1 1 -11 -5 -20 -13 -19
-15 -32 -19 -81 -25 -16 -2 -48 -8 -70 -14 -40 -11 -129 -24 -172 -25 -13 0
-23 -4 -23 -9 0 -4 -4 -6 -9 -3 -4 3 -18 -3 -31 -14 -12 -10 -28 -16 -36 -13
-8 3 -14 1 -14 -5 0 -5 -15 -25 -32 -45 -46 -51 -86 -98 -102 -122 -8 -11 -19
-21 -25 -21 -6 -1 -12 -2 -13 -4 -3 -2 -48 -10 -63 -11 -67 -3 -175 35 -175
62 0 6 -4 8 -9 4 -5 -3 -16 2 -24 10 -9 8 -20 15 -26 15 -5 0 -12 8 -15 18 -3
9 -20 25 -36 34 -17 10 -29 21 -28 25 3 8 -8 23 -45 64 -9 10 -17 24 -17 29 0
6 -4 10 -8 10 -5 0 -15 11 -22 25 -8 14 -20 23 -27 21 -7 -3 -13 -1 -13 4 0
18 -74 80 -83 71 -6 -6 -19 -6 -34 0 -43 16 -94 19 -99 6 -2 -7 -26 -13 -52
-15 -30 -1 -51 -8 -59 -19 -8 -11 -13 -12 -13 -4 0 9 -4 8 -15 -3 -9 -8 -14
-18 -13 -22 2 -3 -14 -15 -35 -25 -21 -11 -35 -24 -32 -28 6 -11 -48 -31 -81
-31 -13 0 -24 -4 -24 -10 0 -5 -6 -7 -13 -4 -8 3 -35 0 -62 -6 -36 -8 -51 -8
-59 1 -8 9 -7 10 3 4 9 -5 12 -4 7 3 -3 6 -18 9 -32 6 -23 -4 -25 -2 -19 18 4
13 4 20 0 16 -10 -10 -37 11 -29 23 3 5 -2 6 -10 3 -8 -3 -23 -1 -33 5 -14 8
-15 11 -3 11 10 1 8 4 -5 9 -12 5 -23 4 -27 -3 -6 -8 -8 -7 -8 2 0 6 -5 12
-11 12 -5 0 -7 -5 -3 -11 4 -7 0 -9 -13 -5 -24 8 -55 -2 -47 -15 3 -5 0 -9 -6
-9 -6 0 -8 -6 -4 -12 4 -7 -3 -4 -17 7 -18 15 -20 16 -10 3 12 -16 11 -18 -5
-19 -14 -1 -12 -3 6 -8 24 -7 23 -8 -11 -14 -29 -6 -36 -11 -32 -26 3 -14 -2
-20 -23 -25 -20 -5 -24 -10 -15 -15 13 -9 -50 -27 -77 -22 -7 1 -15 -4 -17
-11 -6 -16 -120 -24 -129 -10 -3 5 -24 8 -46 7 -22 -1 -37 1 -35 5 3 5 -1 10
-7 13 -10 3 -10 7 -1 17 9 10 16 10 26 2 16 -14 63 -18 97 -9 14 4 19 4 13 1
-21 -9 -15 -23 7 -17 11 3 17 9 14 14 -3 5 -1 9 5 9 5 0 12 -6 14 -12 4 -10 6
-10 6 0 1 7 15 12 34 12 37 0 51 8 60 33 3 9 14 17 24 17 15 0 16 2 3 10 -13
8 -12 10 3 10 9 0 17 7 17 15 0 8 6 15 13 15 9 0 9 2 -1 9 -10 6 -8 10 9 14
18 5 20 9 11 20 -14 16 8 41 43 50 15 4 13 5 -7 6 -29 1 -40 21 -13 21 8 0 15
5 15 10 0 6 -7 10 -15 10 -24 0 -17 20 8 21 12 1 25 1 30 0 11 -2 8 14 -5 27
-9 9 -5 12 19 12 18 0 35 4 38 10 4 6 -1 7 -12 4 -15 -6 -15 -4 2 9 17 13 20
13 23 1 2 -8 15 -14 32 -14 24 0 60 -21 60 -36 0 -2 -12 -4 -26 -4 -24 0 -25
2 -13 17 12 15 12 16 -1 8 -8 -5 -25 -8 -37 -7 -11 2 -24 -2 -29 -9 -5 -9 -1
-10 16 -6 15 4 32 -1 48 -13 17 -14 32 -18 51 -13 l26 6 -19 -22 c-15 -16 -16
-20 -4 -16 18 7 29 -14 23 -46 -4 -17 -1 -20 17 -16 16 5 18 3 9 -6 -17 -17
-13 -26 11 -19 13 3 19 1 15 -5 -10 -16 14 -30 45 -28 15 1 25 -2 22 -7 -3 -4
-10 -6 -15 -3 -5 4 -9 1 -9 -5 0 -6 10 -8 23 -5 12 3 41 9 65 14 51 11 92 36
92 56 0 8 6 15 14 15 7 0 26 12 42 27 16 15 34 28 39 30 6 1 22 5 37 8 15 3
39 10 53 15 13 5 32 7 42 3 12 -5 15 -2 10 10 -5 14 -3 16 11 8 11 -6 33 -6
55 -1 23 5 37 4 37 -2 0 -5 6 -8 12 -6 7 3 19 -1 26 -9 8 -7 17 -11 22 -8 4 3
11 -2 14 -11 3 -9 11 -12 18 -8 7 4 10 4 6 -1 -9 -10 29 -45 49 -45 7 0 12 -3
11 -7 -2 -9 21 -55 32 -63 3 -3 17 -23 30 -45 27 -44 119 -135 136 -135 6 0
18 -7 25 -16 18 -22 55 -35 109 -41 90 -9 109 -2 169 56 27 27 53 46 57 42 4
-3 4 -1 0 6 -4 7 2 21 14 33 11 11 20 17 21 13 0 -5 4 0 8 10 4 10 10 17 13
15 3 -2 14 5 25 14 10 10 37 20 58 23 22 4 49 9 60 13 21 7 28 8 115 16 30 3
68 8 83 11 39 7 157 64 157 76 0 5 7 9 15 9 8 0 15 4 15 9 0 5 11 12 25 15 14
4 23 10 20 15 -6 11 23 23 36 15 6 -3 17 0 26 8 12 9 15 9 9 1 -10 -18 9 -16
27 1 14 14 39 7 38 -10 0 -5 9 -9 20 -9 11 0 27 -8 34 -19 9 -11 22 -17 34
-13 13 3 18 1 14 -8 -3 -10 2 -12 19 -8 20 6 21 4 10 -9 -11 -14 -10 -16 7
-11 13 3 21 1 21 -7 0 -7 8 -9 20 -5 12 4 20 2 20 -5 0 -6 4 -8 10 -5 5 3 10
1 10 -5 0 -7 8 -9 20 -5 11 3 20 2 20 -2 0 -11 87 -9 113 1 9 5 33 5 52 2 24
-5 35 -3 35 5 0 7 10 9 27 6 15 -3 49 1 76 8 46 12 143 13 154 2 2 -3 18 -1
35 4 20 5 36 5 44 -2 8 -7 13 -6 17 3 3 10 7 10 17 1 10 -10 19 -9 42 5 15 9
28 20 28 24 0 4 5 8 11 8 5 0 7 -6 4 -12 -4 -7 0 -5 8 5 9 10 18 18 21 18 21
-3 26 1 20 12 -5 8 -3 8 9 -2 14 -11 18 -11 23 3 3 9 10 13 15 10 5 -3 9 0 9
6 0 6 5 8 10 5 6 -3 10 -1 10 6 0 7 3 10 6 6 3 -3 14 2 25 11 11 9 27 17 37
17 9 0 16 5 15 12 -2 7 6 17 17 23 11 6 20 15 20 21 0 6 -6 7 -13 3 -6 -4 3 6
21 23 17 17 33 36 33 42 1 6 2 17 3 24 1 6 8 11 16 9 11 -2 11 0 1 11 -9 12
-8 16 4 21 9 3 14 10 11 15 -3 5 4 11 16 14 12 4 19 9 15 13 -4 4 -1 14 6 22
10 13 9 14 -1 8 -11 -7 -12 -4 -3 13 7 12 9 27 5 33 -4 7 -3 8 4 4 12 -7 15 1
15 37 0 9 4 17 8 17 5 0 9 7 9 15 0 8 5 15 11 15 5 0 7 5 4 10 -3 5 -1 10 5
10 6 0 8 4 5 10 -3 5 5 15 19 22 14 6 26 15 26 20 0 4 5 8 10 8 6 0 23 8 37
18 28 18 133 25 133 8 0 -4 9 -6 20 -3 11 3 20 1 20 -3 0 -4 8 -6 18 -3 10 2
53 -4 95 -15 88 -23 182 -25 260 -7 31 7 87 16 126 20 39 4 71 11 71 17 0 5
13 7 30 3 17 -4 30 -2 30 3 0 5 23 8 51 8 28 -1 53 2 55 6 8 12 84 6 84 -6 0
-6 7 -2 15 8 8 11 15 15 15 9 0 -6 10 -10 23 -9 12 1 39 -4 60 -11 28 -9 37
-9 37 0 0 7 4 6 10 -3 5 -8 10 -10 10 -5 0 6 17 12 37 13 21 2 39 5 42 7 2 3
10 0 18 -6 10 -9 13 -8 13 0 0 7 5 9 10 6 6 -3 10 -2 10 3 0 5 36 10 80 10 49
1 80 -3 80 -9 0 -6 5 -7 10 -4 6 4 18 1 27 -7 9 -7 18 -12 20 -10 6 4 57 -10
85 -25 15 -7 31 -14 35 -14 5 0 15 -6 23 -12 24 -19 80 -49 80 -42 0 3 14 -2
32 -11 64 -33 163 -56 266 -60 69 -3 102 -1 102 7 0 5 12 9 28 7 33 -3 142 20
159 34 7 6 19 8 27 5 8 -3 22 3 31 13 10 11 22 18 29 17 6 -1 10 3 9 10 -1 6
15 14 37 18 24 4 38 11 34 17 -5 7 2 9 21 4 23 -6 26 -4 21 9 -4 11 -2 14 6 9
17 -11 120 -12 105 -1 -7 4 6 5 28 1 51 -8 43 -8 95 1 35 7 40 10 25 16 -15 6
-11 8 16 8 39 1 111 31 75 31 -24 0 -18 7 9 12 11 1 23 7 26 11 3 4 15 9 27
10 12 0 24 7 27 14 3 10 0 11 -14 4 -13 -8 -18 -6 -18 5 0 7 9 14 20 14 12 0
17 5 14 14 -3 8 1 17 10 20 14 6 14 9 -2 26 -14 15 -15 20 -4 20 11 0 11 2 -1
11 -11 8 -6 9 22 7 32 -3 35 -2 27 14 -8 14 -6 18 10 18 11 0 23 5 26 10 4 6
1 9 -6 8 -6 -2 -14 3 -17 11 -2 8 0 11 6 7 6 -3 13 -2 17 3 4 7 15 7 33 0 15
-6 28 -9 29 -7 1 2 5 0 9 -4 4 -5 0 -8 -8 -8 -9 0 -22 -8 -29 -17 -8 -9 -9
-14 -3 -10 6 3 24 2 40 -3 17 -5 21 -9 11 -9 -10 -1 -16 -5 -12 -10 3 -6 13
-8 23 -6 9 1 23 -4 31 -12 12 -13 11 -14 -10 -9 l-24 6 23 -11 c12 -7 22 -16
22 -21 0 -5 -5 -6 -12 -2 -7 5 -8 3 -4 -5 5 -7 14 -10 22 -7 8 3 13 2 13 -2
-1 -4 -1 -14 0 -22 1 -13 2 -13 11 0 8 13 10 13 10 -2 0 -20 46 -69 69 -73 9
-2 18 -4 21 -4 3 -1 -1 -5 -8 -10 -10 -6 -5 -11 17 -21 17 -7 31 -16 31 -21 0
-5 12 -9 26 -9 14 0 23 -4 20 -9 -8 -12 20 -22 41 -14 12 5 14 3 8 -7 -6 -10
-4 -12 8 -7 10 4 24 10 34 14 10 4 14 2 10 -4 -3 -5 0 -10 8 -10 8 0 12 4 8 9
-3 6 8 3 24 -6 30 -15 76 -18 67 -5 -2 4 3 10 12 13 24 9 31 7 14 -4 -15 -10
17 -14 95 -12 16 1 36 -4 44 -11 12 -9 13 -9 7 1 -9 15 6 16 22 0 9 -9 13 -7
18 6 6 15 7 15 21 -1 9 -11 12 -12 8 -3 -4 10 -2 9 8 -2 8 -10 24 -18 36 -18
11 0 21 -5 21 -11 0 -5 4 -8 9 -5 5 3 14 -1 21 -9 7 -8 23 -15 36 -15 13 0 24
-4 24 -8 0 -5 6 -9 13 -10 6 -1 27 -3 45 -5 17 -3 32 0 32 5 0 5 6 6 13 1 16
-10 56 -4 90 13 15 8 27 12 27 8 0 -4 8 0 17 7 15 12 16 12 8 -1 -6 -11 -3
-10 12 3 11 9 26 17 34 17 8 0 20 5 27 12 7 7 12 9 12 4 0 -4 12 1 28 12 15
11 36 21 47 23 20 4 20 13 23 1307 l2 1303 -45 -33 c-55 -40 -55 -40 -128 -73
-33 -15 -65 -24 -73 -21 -8 3 -14 2 -14 -3 0 -5 -22 -11 -50 -15 -27 -4 -50
-10 -50 -14 0 -9 -59 -32 -83 -32 -21 0 -56 -19 -78 -42 -9 -10 -19 -18 -23
-18 -4 0 -17 -9 -29 -21 -12 -11 -30 -18 -39 -15 -10 2 -18 1 -18 -3 0 -4 -7
-8 -15 -8 -8 0 -12 3 -10 7 2 4 -16 6 -41 5 -24 -1 -47 1 -50 6 -2 5 -15 4
-28 -1 -16 -6 -28 -5 -36 3 -10 9 -11 9 -6 -3 5 -9 2 -9 -7 2 -8 10 -17 15
-20 11 -4 -3 -7 -2 -7 3 0 5 -24 9 -53 8 -100 -2 -122 -4 -109 -12 7 -5 -50
-7 -125 -6 -91 1 -157 -3 -194 -12 -67 -16 -169 -62 -169 -75 0 -5 -7 -9 -16
-9 -8 0 -12 -4 -9 -10 3 -5 2 -10 -4 -10 -14 0 -101 -86 -101 -100 0 -6 -4 -8
-10 -5 -5 3 -10 2 -10 -4 0 -5 -18 -28 -40 -50 -23 -23 -38 -41 -35 -41 4 0
-27 -34 -68 -75 -41 -41 -78 -75 -83 -75 -5 0 -14 -10 -19 -21 -6 -12 -12 -20
-15 -19 -3 2 -21 -11 -40 -28 -19 -18 -38 -32 -43 -32 -5 0 -14 -6 -22 -12 -7
-7 -32 -28 -54 -47 -23 -19 -41 -40 -41 -47 0 -8 -3 -13 -7 -12 -13 2 -43 -14
-43 -23 0 -12 -48 -58 -54 -52 -3 3 -10 -6 -15 -20 -9 -23 -45 -67 -55 -67 -2
0 -23 -18 -46 -39 -24 -22 -49 -37 -55 -34 -7 2 -20 -5 -28 -17 -9 -12 -20
-19 -26 -16 -5 4 -13 1 -16 -5 -4 -5 -13 -8 -21 -5 -8 3 -14 0 -14 -6 0 -7 -5
-6 -15 2 -8 7 -15 9 -15 4 0 -5 -5 -2 -10 6 -5 8 -10 10 -10 4 0 -6 -13 -11
-30 -10 -16 1 -30 4 -30 8 0 8 -21 5 -37 -5 -9 -6 -11 -3 -7 8 5 11 2 14 -12
9 -11 -4 -25 -12 -33 -18 -11 -8 -13 -8 -7 2 8 13 -6 17 -18 5 -4 -5 -13 -8
-19 -8 -7 -1 -11 -7 -9 -14 2 -8 -4 -10 -18 -6 -12 4 -20 2 -20 -5 0 -7 -8
-10 -19 -7 -13 3 -30 -6 -49 -25 -17 -16 -41 -31 -54 -33 -13 -3 -28 -12 -34
-20 -12 -16 -29 -21 -19 -5 10 16 -27 -1 -54 -24 -20 -18 -23 -18 -18 -3 8 21
3 21 -29 1 -13 -9 -27 -14 -31 -11 -3 4 -15 1 -26 -4 -25 -14 -68 -19 -61 -8
7 12 1 11 -32 -1 -15 -6 -58 -12 -95 -13 -37 -2 -73 -8 -81 -14 -8 -7 -23 -12
-33 -11 -11 0 -29 -3 -40 -7 -16 -5 -17 -5 -5 4 11 8 3 9 -32 6 -26 -3 -51 -5
-55 -6 -13 -3 -63 13 -63 20 0 4 -17 8 -37 9 -21 2 -40 6 -43 10 -7 11 -166 6
-220 -6 -54 -13 -135 -43 -170 -62 -24 -13 -31 -16 -63 -23 -7 -1 -29 -12 -48
-23 -43 -26 -120 -48 -219 -65 -41 -7 -79 -14 -85 -16 -15 -4 -114 -21 -160
-27 -43 -5 -109 -30 -192 -70 -29 -14 -57 -26 -61 -26 -5 0 -17 -9 -27 -20
-10 -11 -24 -20 -32 -20 -7 0 -13 -3 -13 -7 0 -12 -61 -44 -71 -37 -5 3 -9 1
-9 -4 0 -4 -16 -16 -35 -25 -19 -9 -35 -22 -35 -27 0 -6 -5 -8 -10 -5 -6 4
-32 -7 -59 -24 -27 -16 -51 -28 -53 -25 -7 6 -138 -122 -138 -135 0 -6 -7 -14
-16 -18 -8 -3 -13 -12 -10 -20 4 -8 1 -11 -5 -8 -6 4 -9 1 -8 -6 4 -21 -22
-69 -37 -69 -7 0 -17 -6 -21 -14 -4 -8 -57 -26 -118 -41 -60 -15 -117 -29
-125 -33 -8 -3 -17 -6 -20 -7 -3 -1 -18 -8 -35 -15 -16 -8 -35 -14 -40 -15 -6
0 -24 -10 -41 -22 -17 -12 -34 -20 -38 -16 -3 3 -6 1 -6 -5 0 -6 -7 -9 -17 -5
-11 5 -14 3 -8 -6 5 -10 2 -11 -14 -6 -13 4 -21 2 -21 -5 0 -6 -4 -8 -10 -5
-5 3 -10 2 -10 -2 0 -5 -21 -9 -47 -9 -26 -1 -49 -6 -51 -12 -2 -6 -9 -9 -17
-6 -7 3 -16 1 -20 -5 -3 -6 -17 -8 -32 -5 -14 4 -28 3 -32 -2 -3 -5 -16 -15
-29 -22 -18 -10 -22 -10 -20 0 2 7 -3 13 -9 13 -7 0 -13 -4 -12 -9 2 -18 -26
-26 -32 -9 -5 14 -8 13 -27 -7 -12 -13 -22 -19 -22 -13 0 6 -7 13 -15 17 -8 3
-14 1 -12 -3 1 -5 -1 -9 -5 -10 -23 -3 -28 0 -22 12 4 6 -3 3 -17 -8 -19 -16
-21 -16 -10 -2 17 21 5 37 -27 40 -19 1 -30 13 -37 40 -2 4 -4 10 -5 15 -1 4
-2 10 -1 15 0 4 -9 7 -22 7 l-22 0 25 20 c14 11 18 18 9 14 -22 -7 -32 11 -20
35 8 14 7 22 -6 32 -11 10 -14 10 -9 2 5 -9 2 -11 -8 -7 -12 4 -13 11 -6 24
10 19 -10 47 -24 33 -4 -4 -4 0 0 10 6 15 -4 22 -28 18 -4 0 -5 6 -1 14 4 12
9 13 19 4 8 -6 14 -9 14 -6 0 2 -17 17 -37 33 -21 15 -32 21 -25 12 10 -13 9
-16 -7 -21 -13 -3 -18 -1 -15 8 3 7 -2 15 -11 19 -11 4 -14 2 -10 -7 4 -6 0
-4 -8 6 -16 19 -32 24 -21 5 4 -7 3 -8 -4 -4 -6 4 -9 13 -6 21 4 10 0 13 -15
10 -14 -2 -18 1 -14 11 3 9 -2 14 -15 14 -12 0 -24 5 -27 11 -4 6 -13 8 -21 5
-8 -3 -14 -1 -14 4 0 5 -20 12 -45 16 -25 3 -45 9 -45 13 0 9 -74 6 -90 -4 -9
-6 -11 -4 -5 5 6 10 4 11 -11 6 -10 -5 -29 -10 -41 -11 -33 -5 -96 -26 -117
-41 -10 -7 -25 -10 -32 -7 -9 3 -14 -2 -14 -13 0 -9 -3 -15 -6 -11 -8 8 -64
-44 -64 -60 0 -7 -3 -13 -8 -13 -4 0 -13 -14 -20 -30 -8 -17 -18 -28 -23 -24
-5 3 -8 2 -7 -3 3 -12 -33 -83 -43 -83 -5 0 -9 -8 -9 -19 0 -18 -59 -91 -73
-91 -18 0 -183 -84 -193 -98 -6 -8 -16 -12 -22 -8 -6 3 -13 2 -17 -4 -4 -6
-10 -8 -15 -5 -5 3 -17 -3 -27 -13 -10 -11 -31 -26 -48 -34 -16 -8 -39 -19
-50 -25 -25 -14 -54 -25 -80 -29 -27 -5 -63 -11 -104 -19 -19 -4 -44 -13 -55
-20 -12 -8 -46 -23 -76 -35 -30 -12 -69 -32 -87 -46 -17 -13 -37 -24 -43 -24
-6 0 -30 -13 -53 -28 -23 -16 -55 -36 -72 -44 -16 -8 -60 -31 -97 -50 -37 -20
-69 -34 -71 -31 -3 2 -19 -3 -36 -11 -16 -9 -39 -16 -49 -16 -26 0 -77 -27
-61 -32 7 -2 -3 -12 -22 -21 -45 -23 -68 -38 -91 -59 -10 -10 -23 -18 -28 -18
-6 0 -10 -7 -10 -17 0 -9 -3 -14 -6 -10 -5 5 -34 -25 -87 -93 -27 -34 -67
-100 -67 -110 0 -6 -4 -8 -10 -5 -5 3 -10 0 -10 -8 0 -8 -7 -20 -15 -27 -9 -7
-13 -15 -11 -18 3 -2 -11 -20 -31 -38 -20 -19 -30 -34 -22 -34 8 -1 3 -7 -11
-15 -14 -8 -19 -14 -11 -15 19 0 -35 -50 -55 -50 -7 0 -14 -6 -14 -13 0 -8
-16 -18 -34 -24 -30 -9 -36 -8 -39 6 -4 13 -5 13 -6 -2 0 -10 -7 -17 -13 -14
-7 2 -12 15 -10 28 2 17 0 20 -6 11 -7 -11 -12 -11 -25 2 -8 9 -23 13 -31 10
-12 -4 -16 0 -16 16 0 19 -4 21 -24 16 -28 -7 -39 3 -27 23 6 9 11 10 15 2 5
-7 15 -7 31 -1 14 5 26 6 27 2 0 -4 2 -11 3 -17 2 -5 3 -14 4 -19 0 -5 8 -3
16 4 12 10 16 9 21 -4 8 -22 25 -20 17 2 -5 16 -5 16 8 1 13 -16 17 -16 57 2
27 11 42 25 42 36 0 11 3 14 8 7 7 -10 41 16 43 34 1 14 37 41 45 34 4 -4 4 1
1 10 -6 17 15 43 26 31 4 -3 12 8 18 25 6 18 15 32 19 32 5 0 12 9 15 21 6 19
19 37 50 73 6 6 23 29 40 51 46 63 114 124 183 163 34 20 62 40 62 44 0 4 7 4
17 1 10 -4 14 -2 10 4 -4 6 40 28 108 53 64 23 118 46 121 51 5 9 71 41 87 43
4 1 11 6 15 11 4 6 34 23 67 40 33 16 74 40 91 52 17 13 36 23 41 23 6 0 16 7
23 15 7 8 21 15 31 15 11 0 19 5 19 11 0 6 7 9 15 5 8 -3 15 -1 15 4 0 6 3 9
8 8 4 0 15 2 25 7 10 4 21 5 24 2 3 -4 15 -1 27 5 11 7 23 13 26 13 3 0 15 6
26 13 12 6 24 8 28 5 3 -3 6 -1 6 5 0 7 5 12 11 12 7 0 19 8 28 18 9 10 31 24
49 31 17 8 32 17 32 22 0 5 18 12 40 15 25 4 45 14 51 26 5 10 13 16 18 14 4
-3 19 1 34 9 15 8 27 12 27 9 0 -6 46 34 102 88 26 25 48 51 48 55 0 5 9 18
19 30 10 11 21 29 23 39 2 10 10 18 17 16 9 -2 10 4 6 20 -4 13 -4 20 0 15 5
-4 23 18 40 49 18 31 36 55 41 54 5 -2 15 8 21 21 7 13 13 19 13 12 0 -12 61
14 68 30 2 4 8 4 14 1 6 -4 13 -2 17 4 4 7 30 13 58 16 28 2 56 7 62 10 6 4
11 4 11 -1 0 -4 4 -2 8 5 10 14 39 21 97 23 22 1 46 6 53 12 6 5 12 6 12 1 0
-12 113 -13 121 -2 3 5 22 10 43 12 20 2 65 17 99 34 75 38 123 45 119 20 -2
-13 2 -16 14 -11 12 5 15 3 9 -6 -6 -10 0 -12 26 -6 19 3 30 3 24 -2 -5 -4
-16 -16 -24 -26 -12 -15 -10 -18 17 -28 28 -9 36 -29 19 -45 -11 -11 -8 -26 4
-19 6 4 9 0 7 -11 -2 -13 2 -18 12 -16 11 3 12 1 3 -8 -12 -13 -4 -48 20 -99
7 -13 11 -32 9 -43 -2 -10 2 -18 8 -18 7 0 9 -7 6 -16 -3 -8 -2 -12 4 -9 10 6
15 -9 10 -30 -1 -5 2 -7 5 -3 13 12 46 -12 56 -41 9 -24 14 -28 47 -25 20 1
40 -2 43 -8 4 -7 13 -7 26 0 14 8 23 8 31 0 9 -9 12 -9 12 0 0 6 7 9 15 6 8
-4 15 -1 15 5 0 6 7 8 15 5 8 -4 15 -1 15 5 0 6 4 10 9 8 5 -1 10 3 11 8 2 6
16 15 31 22 16 7 29 19 29 28 0 8 5 15 10 15 6 0 27 16 47 35 19 19 45 37 56
41 14 4 16 8 7 14 -8 5 0 12 25 20 22 7 33 15 26 20 -14 8 56 60 81 60 8 0 31
15 51 34 20 18 38 31 41 28 4 -3 6 0 6 6 0 7 9 12 20 12 11 0 20 7 20 15 0 9
6 12 15 9 8 -4 15 -2 15 4 0 5 14 12 31 16 17 3 28 10 25 14 -3 5 7 9 22 10
38 1 115 37 129 61 8 12 19 18 28 15 8 -4 15 -1 15 5 0 6 7 8 15 5 8 -4 15 -1
15 5 0 6 7 11 15 11 8 0 15 4 15 10 0 5 22 21 49 34 26 14 67 43 90 65 24 23
48 41 55 41 7 0 21 9 31 20 10 11 22 17 26 14 5 -3 9 1 9 8 0 18 68 60 99 62
14 1 31 5 37 8 6 4 25 6 43 3 17 -2 45 0 61 5 19 5 30 5 30 -1 0 -6 5 -7 11
-3 7 4 46 7 88 7 47 -1 97 6 131 17 30 10 64 18 75 18 11 0 40 6 65 13 25 6
54 13 65 13 27 3 132 34 175 52 19 9 44 19 55 23 11 5 49 22 85 39 178 82 208
90 358 97 40 2 79 8 87 15 8 7 15 8 15 3 0 -12 96 11 115 27 7 6 20 8 28 4 9
-3 24 1 32 10 9 9 25 16 35 16 20 0 83 30 88 43 2 4 12 7 22 7 10 0 21 4 24 8
11 18 135 72 164 72 17 0 32 5 34 11 2 5 19 11 38 11 19 0 40 5 47 10 7 5 17
7 22 4 5 -4 13 -1 16 5 4 5 13 8 21 5 7 -3 16 0 20 6 4 7 9 6 15 -3 5 -8 9 -9
9 -4 0 14 80 15 80 1 0 -6 5 -4 10 4 9 13 10 13 10 0 0 -13 1 -13 10 0 9 13
10 13 10 0 0 -13 1 -13 10 0 9 13 10 13 10 0 0 -13 1 -13 10 0 8 12 10 12 10
-5 0 -11 4 -15 8 -10 9 13 42 13 61 1 11 -7 12 -6 6 5 -8 12 -6 12 8 0 12 -9
17 -10 17 -2 0 7 5 9 10 6 6 -4 17 -1 25 5 12 10 15 10 15 -1 1 -9 8 -5 20 10
12 13 26 21 35 17 8 -3 15 -1 15 4 0 6 6 10 14 10 8 0 23 10 33 23 10 13 33
32 51 42 17 11 32 24 32 30 0 5 16 23 35 39 19 16 32 33 29 38 -3 4 2 11 10
14 9 3 16 12 16 20 0 8 5 14 10 14 6 0 10 5 10 12 0 6 18 29 40 50 22 22 40
43 40 46 0 4 14 13 30 20 17 8 28 17 25 22 -3 4 6 11 20 14 13 3 36 18 51 31
15 14 34 23 41 21 7 -3 19 3 25 14 14 22 34 28 22 8 -4 -7 6 2 23 20 16 17 35
32 41 32 7 0 12 4 12 8 0 5 11 15 25 22 14 7 23 16 20 18 -3 3 13 17 34 31 22
15 50 38 63 51 28 29 76 70 83 70 2 0 21 16 42 35 21 19 45 35 53 35 13 0 13
1 0 10 -13 8 -12 10 3 10 9 0 25 9 34 20 10 11 25 20 35 20 9 0 24 7 32 15 9
9 39 23 68 31 29 8 60 18 68 21 8 3 21 5 28 4 6 -1 12 2 12 6 0 4 19 9 42 11
23 1 48 7 54 13 7 6 23 8 35 4 14 -5 19 -3 15 3 -6 10 99 39 119 32 23 -7 90
2 116 16 16 8 39 15 53 16 13 1 23 5 20 9 -2 4 3 10 12 13 10 4 13 2 8 -7 -4
-6 4 -2 18 11 13 12 27 19 31 16 6 -6 118 82 125 98 2 4 11 4 20 1 9 -3 14 -2
9 2 -4 5 5 14 20 22 16 7 52 29 81 48 30 20 51 31 47 26 -4 -7 0 -8 10 -5 9 4
13 9 11 12 -9 9 16 32 27 25 6 -3 7 -1 3 5 -4 7 -2 12 3 12 6 0 11 6 11 13 0
8 9 22 20 32 11 10 20 25 21 34 0 10 2 12 6 4 2 -7 12 -13 21 -13 14 0 14 2 3
9 -11 7 -9 10 9 16 16 5 19 10 10 15 -9 5 -9 9 -1 14 6 4 11 4 11 1 0 -3 6 0
14 7 8 7 11 17 8 22 -3 5 0 6 5 3 6 -4 21 2 33 13 13 11 27 20 33 20 5 0 24 7
43 16 l34 16 0 2879 0 2879 -1104 0 c-876 0 -1107 -3 -1118 -13 -7 -7 -26 -21
-43 -31 -34 -22 -38 -25 -86 -66 -20 -16 -42 -30 -48 -30 -7 0 -9 -5 -6 -10 3
-5 2 -10 -4 -10 -18 0 -50 -65 -57 -115 -3 -28 -8 -59 -11 -70 -2 -11 -5 -36
-7 -57 -2 -20 -15 -57 -30 -83 -29 -48 -144 -170 -154 -161 -2 3 -19 -5 -36
-17 -17 -12 -32 -20 -33 -17 -1 3 -13 -4 -25 -15 -13 -11 -26 -19 -30 -17 -5
1 -8 -3 -8 -8 0 -6 -9 -10 -20 -10 -11 0 -23 -6 -26 -13 -2 -7 -18 -14 -34
-15 -16 -1 -67 -20 -112 -42 -46 -22 -87 -40 -93 -40 -5 0 -46 -14 -90 -31
-73 -29 -84 -37 -125 -92 -25 -33 -48 -69 -52 -79 -4 -10 -12 -18 -18 -18 -5
0 -10 -6 -10 -13 0 -13 -42 -75 -142 -209 -25 -35 -73 -112 -107 -172 -33 -60
-64 -112 -68 -115 -9 -7 -17 -19 -64 -101 -18 -30 -58 -93 -89 -140 -31 -47
-69 -116 -85 -155 -16 -38 -32 -74 -36 -80 -4 -5 -23 -40 -43 -77 -19 -37 -55
-93 -80 -126 -54 -70 -151 -162 -172 -162 -9 0 -13 -4 -10 -8 9 -14 -147 -82
-286 -123 -184 -56 -237 -82 -368 -178 -19 -14 -30 -18 -25 -10 4 7 -2 4 -13
-8 -25 -25 -99 -77 -124 -86 -10 -4 -18 -11 -18 -16 0 -5 -13 -14 -30 -20 -16
-5 -30 -15 -30 -20 0 -6 -7 -8 -15 -5 -8 4 -15 2 -15 -2 0 -5 -13 -15 -30 -22
-16 -8 -49 -33 -72 -57 -24 -24 -77 -79 -119 -122 -84 -86 -219 -256 -219
-274 0 -7 -6 -20 -13 -28 -27 -32 -39 -95 -33 -175 3 -43 8 -81 11 -84 2 -3 0
-11 -6 -18 -6 -8 -7 -14 0 -18 6 -4 5 -22 -4 -49 -23 -72 -46 -131 -55 -142
-4 -5 -11 -26 -15 -45 -4 -19 -12 -46 -18 -60 -10 -25 -12 -33 -22 -104 -3
-22 -9 -44 -13 -50 -3 -6 -7 -15 -8 -21 -15 -83 -50 -192 -76 -237 -7 -13 -13
-27 -13 -33 -1 -5 -8 -23 -17 -40 -8 -16 -19 -41 -23 -54 -11 -36 -114 -180
-204 -285 -20 -23 -55 -65 -78 -92 -23 -27 -53 -62 -68 -79 -14 -16 -40 -49
-57 -72 -17 -24 -35 -43 -38 -43 -4 0 -13 -13 -20 -30 -7 -16 -16 -30 -21 -30
-16 0 -41 -180 -29 -210 6 -16 5 -99 -2 -125 -4 -16 -10 -54 -13 -85 -12 -117
-21 -131 -196 -296 -52 -49 -79 -81 -79 -93 0 -5 -7 -14 -15 -21 -8 -7 -12
-16 -9 -21 3 -5 -4 -25 -16 -44 -12 -19 -19 -35 -16 -35 4 0 -2 -12 -11 -27
-10 -15 -17 -28 -15 -30 9 -11 -3 -35 -33 -69 -19 -21 -41 -51 -47 -66 -9 -18
-15 -23 -20 -15 -6 9 -8 9 -8 0 0 -14 -42 -8 -88 13 -18 8 -36 12 -41 9 -6 -3
-13 0 -18 7 -4 7 -23 21 -40 30 -29 15 -34 15 -48 2 -8 -9 -13 -19 -11 -23 3
-4 -1 -8 -9 -8 -8 0 -12 5 -9 11 3 6 -1 3 -9 -7 -11 -14 -16 -15 -20 -5 -3 7
-6 0 -6 -16 -1 -16 -4 -26 -7 -23 -8 8 -35 -27 -62 -79 -12 -23 -27 -48 -34
-55 -17 -18 -79 -142 -76 -150 2 -4 -6 -16 -16 -28 -11 -12 -16 -21 -12 -21 4
0 0 -7 -8 -16 -9 -8 -14 -19 -11 -24 3 -4 -2 -11 -10 -14 -8 -3 -15 -9 -14
-13 3 -19 -2 -34 -9 -29 -5 3 -27 -12 -50 -34 -23 -21 -42 -36 -42 -33 0 3 -6
0 -13 -6 -8 -6 -16 -8 -20 -5 -3 3 -8 -3 -11 -14 -6 -17 -20 -26 -49 -30 -30
-4 -103 -57 -162 -117 -55 -56 -82 -95 -125 -180 -30 -60 -54 -113 -52 -117 1
-5 -11 -27 -29 -49 -17 -21 -27 -39 -22 -39 4 0 3 -4 -3 -8 -7 -4 -24 -29 -38
-56 -14 -27 -30 -54 -35 -60 -4 -6 -14 -29 -21 -51 -7 -22 -16 -45 -21 -51 -5
-6 -11 -31 -15 -55 -5 -41 -5 -72 -3 -254 0 -38 0 -72 -1 -75 -1 -3 -3 -16 -6
-29 -8 -43 -67 -154 -116 -218 -26 -34 -48 -66 -48 -69 0 -4 -11 -21 -24 -38
-32 -43 -56 -92 -49 -100 4 -3 1 -6 -5 -6 -20 0 -62 -111 -88 -234 -2 -11 -9
-24 -15 -30 -9 -8 -10 -5 -5 14 7 25 13 52 20 93 2 12 9 36 16 52 6 17 12 32
12 35 0 3 9 22 19 42 10 21 19 44 19 52 0 8 4 16 9 18 5 2 11 10 13 18 2 8 13
23 26 33 13 11 21 25 18 33 -3 7 -2 14 2 16 4 2 25 26 47 53 22 28 43 51 47
53 13 6 67 126 82 183 7 30 12 71 10 90 -13 122 0 326 24 363 4 6 7 13 8 16 6
35 20 69 33 85 25 31 41 63 41 82 0 9 3 13 6 10 11 -10 40 34 68 103 32 78 59
133 67 140 4 3 23 31 44 63 42 67 128 155 171 176 16 8 43 25 59 36 17 12 42
28 57 36 37 20 148 120 148 134 0 7 9 20 20 30 11 10 20 22 20 27 0 21 136
304 150 313 6 4 8 11 4 16 -3 5 0 16 6 24 6 8 9 18 6 24 -3 5 1 12 10 15 8 3
14 11 13 18 -5 22 12 59 23 52 6 -4 5 2 -2 15 -6 12 -15 19 -21 16 -15 -10
-10 2 8 16 14 12 16 12 8 0 -6 -10 -4 -12 4 -7 7 5 10 10 7 13 -7 7 19 56 38
72 9 7 13 18 10 23 -3 5 -15 1 -27 -9 l-22 -18 19 23 c12 14 23 19 29 13 5 -5
15 -7 22 -5 7 3 16 0 21 -7 5 -8 3 -10 -7 -4 -8 5 -7 0 4 -12 9 -11 14 -22 11
-26 -3 -3 3 -3 15 0 20 5 27 -8 22 -39 0 -4 7 -4 16 -1 11 4 14 3 9 -5 -9 -15
5 -37 24 -37 8 0 15 -7 15 -15 0 -8 8 -14 18 -14 9 1 14 -2 11 -7 -3 -5 0 -9
6 -9 6 0 8 -6 4 -12 -4 -7 -4 -10 1 -6 4 4 14 3 21 -3 17 -14 42 3 77 53 16
22 23 37 18 33 -17 -10 -13 11 5 26 17 14 39 58 35 72 -1 4 11 24 26 44 16 21
22 33 14 28 -9 -5 -7 2 5 18 10 15 22 27 26 27 4 0 30 23 57 50 28 27 54 50
59 50 6 0 17 11 26 25 9 13 22 22 29 19 15 -5 76 109 82 156 0 3 5 12 10 20 5
8 10 85 10 170 1 85 4 169 9 185 14 49 56 135 67 135 5 0 12 7 16 15 3 9 33
44 67 79 67 69 195 221 259 307 27 37 65 100 82 139 9 19 25 54 36 77 10 24
19 47 19 52 0 6 11 30 24 56 27 49 64 150 77 205 6 29 21 91 53 220 2 8 11 40
20 70 29 102 33 148 24 285 -4 48 -2 85 4 93 6 6 8 12 5 12 -19 0 51 113 137
223 125 159 187 245 184 254 -4 12 114 133 124 127 4 -3 8 -1 8 3 0 9 72 43
90 43 6 0 10 6 10 14 0 8 18 18 43 24 23 6 52 20 65 32 12 11 22 17 22 13 0
-4 7 3 16 15 8 12 19 22 24 22 10 0 110 59 120 70 11 12 177 90 205 96 17 4
35 10 40 14 6 4 17 8 25 8 8 0 57 12 108 27 98 27 169 59 212 94 166 136 255
250 307 390 17 48 63 126 167 286 77 118 90 141 138 240 22 44 43 82 47 85 5
3 18 25 31 50 12 25 45 78 72 118 27 41 63 99 80 130 17 31 35 60 41 63 5 3 8
9 8 13 -1 3 8 29 20 56 24 56 108 135 155 146 16 3 38 12 49 19 11 6 39 15 62
18 43 7 104 38 135 69 10 10 22 18 27 18 4 0 21 12 36 28 15 15 32 27 39 27 6
1 10 6 9 13 -2 7 4 12 12 12 7 0 19 8 24 18 6 9 11 13 11 8 0 -5 7 -3 15 4 8
7 15 9 15 6 0 -4 10 0 22 8 12 9 30 16 40 16 9 0 21 7 26 16 5 9 11 15 13 14
9 -4 65 27 82 45 32 36 56 90 47 105 -5 8 -5 21 1 31 5 10 9 28 9 41 -1 49 8
96 25 134 20 44 73 104 91 104 6 0 17 7 24 15 7 8 16 13 20 10 5 -3 11 -1 15
5 4 6 11 8 16 5 5 -4 9 -1 9 4 0 8 -1670 11 -5616 11 -5344 0 -5616 -1 -5611
-17 3 -10 22 -56 42 -103 20 -47 39 -105 41 -129 8 -79 64 -229 95 -256 16
-13 29 -27 29 -32 0 -4 10 -20 23 -34 58 -70 71 -89 102 -154 18 -38 38 -97
45 -130 8 -33 17 -64 21 -70 4 -5 10 -31 14 -57 4 -27 10 -48 14 -48 10 0 10
-174 0 -186 -5 -6 -11 -24 -12 -40 -2 -16 -9 -45 -15 -64 -28 -86 -35 -169
-21 -245 6 -33 14 -64 17 -70 4 -5 7 -14 8 -20 1 -5 18 -50 39 -99 28 -69 37
-105 40 -162 4 -88 -6 -123 -63 -231 -24 -46 -40 -83 -37 -83 3 0 0 -10 -7
-22 -17 -33 -19 -44 -23 -130 -3 -45 0 -78 5 -78 6 0 10 -11 10 -24 0 -29 36
-94 65 -117 11 -9 31 -26 44 -38 13 -11 32 -23 42 -26 11 -4 19 -11 19 -16 0
-5 6 -9 13 -9 18 0 49 -34 40 -43 -3 -4 -2 -7 4 -7 13 0 54 -36 48 -42 -5 -5
47 -112 66 -134 5 -6 6 -14 2 -17 -3 -4 -1 -7 5 -7 7 0 12 -6 12 -13 0 -14 60
-74 95 -94 40 -23 89 -45 180 -79 11 -4 29 -8 39 -8 11 -1 21 -7 24 -14 2 -6
7 -10 12 -7 4 3 13 -2 20 -10 7 -8 20 -15 29 -15 30 0 85 -82 169 -250 76
-154 109 -250 129 -375 3 -16 9 -34 13 -40 4 -5 13 -28 19 -50 6 -22 27 -65
47 -95 66 -100 68 -106 67 -225 0 -111 -7 -177 -22 -217 -5 -13 1 -52 16 -107
13 -47 26 -97 30 -111 3 -14 7 -96 7 -182 0 -87 4 -158 8 -158 4 0 8 -8 8 -18
0 -55 79 -159 169 -222 52 -36 97 -83 105 -108 4 -13 9 -73 11 -135 5 -125 13
-177 27 -177 5 0 6 -4 3 -10 -3 -5 13 -53 36 -107 29 -68 43 -116 46 -158 5
-78 10 -126 14 -145 6 -21 65 -107 108 -154 65 -72 213 -216 222 -216 5 0 9
-6 9 -13 0 -8 11 -20 25 -27 14 -7 25 -20 25 -27 0 -8 4 -12 9 -8 6 3 15 -5
22 -17 13 -25 29 -44 71 -85 15 -14 30 -34 33 -44 4 -10 9 -18 13 -16 4 1 38
-28 76 -65 38 -38 73 -68 78 -68 4 0 8 -5 8 -11 0 -6 14 -28 30 -49 17 -21 30
-40 30 -43 0 -3 10 -23 22 -44 12 -20 24 -44 25 -53 9 -49 10 -108 3 -120 -5
-8 -5 -21 1 -31 6 -12 5 -20 -2 -24 -5 -4 -9 -19 -8 -33 2 -15 -1 -38 -6 -52
-5 -14 -8 -33 -6 -44 2 -12 -1 -16 -10 -10 -9 5 -10 2 -6 -9 3 -10 2 -17 -3
-17 -11 0 -1 -233 13 -295 3 -11 -2 -31 -10 -44 -12 -18 -12 -22 -2 -15 12 6
12 5 1 -8 -9 -11 -10 -23 -3 -41 7 -19 6 -27 -4 -30 -10 -4 -11 -15 -5 -40 6
-27 4 -39 -9 -52 -15 -15 -15 -16 1 -10 13 5 15 2 11 -16 -5 -16 -3 -20 6 -14
10 5 11 2 6 -14 -4 -13 -1 -27 10 -37 9 -9 19 -29 22 -45 3 -16 9 -27 12 -24
7 3 19 -17 50 -85 27 -60 65 -199 65 -242 1 -27 4 -48 7 -48 4 0 3 -19 -3 -42
-5 -24 -11 -57 -13 -75 -1 -17 -5 -36 -9 -41 -14 -23 -26 -160 -17 -209 4 -29
5 -53 1 -53 -10 0 -22 118 -16 149 3 13 8 47 11 75 5 52 12 91 16 91 1 0 3 11
4 25 2 14 5 34 8 45 2 11 1 30 -4 41 -4 13 -3 26 4 33 8 8 8 11 -2 11 -7 0
-10 3 -8 8 5 7 -15 109 -28 147 -10 31 -69 149 -77 155 -3 3 -10 18 -13 33 -4
15 -12 31 -19 35 -38 24 -68 121 -46 147 11 13 10 15 -6 9 -18 -5 -18 -5 0 10
11 9 16 16 10 16 -5 0 -10 17 -11 38 -2 28 0 33 8 22 7 -11 9 -6 6 23 -3 20
-1 39 3 42 8 5 5 101 -5 150 -10 47 -11 125 -2 125 5 0 6 4 2 9 -3 5 5 39 19
75 13 36 22 77 21 91 -2 14 0 25 3 25 12 0 20 154 10 190 -10 38 -116 178
-173 229 -21 20 -52 47 -67 61 -15 14 -41 37 -58 52 -16 15 -30 30 -30 33 0 9
-82 85 -92 85 -4 0 -8 6 -8 13 0 6 -16 27 -35 44 -19 18 -35 35 -35 38 0 5
-54 63 -165 179 -126 131 -164 194 -171 283 -5 62 -31 170 -47 190 -5 7 -6 17
-2 23 3 5 1 10 -4 10 -6 0 -10 3 -9 8 1 4 -3 18 -9 32 -6 14 -18 42 -27 64 -9
21 -13 42 -10 47 3 5 2 9 -3 9 -4 0 -9 15 -9 33 -6 143 -24 224 -54 252 -11
10 -20 24 -20 32 0 8 -4 12 -9 8 -6 -3 -13 1 -18 8 -4 7 -23 23 -40 36 -66 46
-143 183 -158 281 -10 67 -11 75 -4 112 3 21 4 39 2 42 -3 2 -6 31 -8 63 -2
32 -10 77 -19 101 -8 23 -15 43 -15 45 1 1 -6 27 -15 57 -14 50 -15 114 -1
128 2 3 0 11 -6 19 -7 7 -7 13 -2 13 6 0 11 19 11 43 2 45 7 93 17 144 3 18 1
34 -5 38 -5 3 -10 16 -10 29 0 23 -44 120 -67 147 -19 23 -51 116 -83 244 -18
74 -39 129 -62 165 -19 30 -42 74 -52 98 -11 23 -23 42 -28 42 -4 0 -8 6 -8
13 0 26 -43 102 -76 135 -19 19 -34 31 -34 27 0 -3 -7 0 -15 8 -8 9 -36 23
-62 33 -27 10 -65 29 -86 42 -22 13 -47 24 -58 25 -10 1 -19 5 -19 9 0 4 -5 8
-11 8 -14 0 -105 66 -139 100 -28 28 -100 127 -100 136 0 3 -16 22 -35 41 -19
19 -35 41 -35 49 0 8 -4 14 -8 14 -5 0 -27 17 -50 38 -22 20 -59 54 -81 74
-23 20 -41 42 -41 48 0 6 -7 13 -15 16 -8 4 -15 12 -15 19 0 7 -6 18 -14 24
-21 18 -38 103 -38 189 1 82 28 170 72 232 12 17 23 36 24 43 1 7 11 31 24 55
19 36 22 56 19 130 -1 48 -7 94 -12 102 -5 8 -11 23 -12 33 -2 10 -17 51 -34
90 -17 40 -33 81 -36 92 -10 34 -13 247 -4 264 5 9 11 35 15 59 3 24 8 48 12
53 3 5 8 56 10 112 7 179 -39 340 -128 452 -26 33 -53 65 -60 71 -28 25 -58
65 -58 78 0 8 -5 18 -10 21 -14 8 -65 121 -96 211 -13 40 -48 119 -77 175
l-52 104 -3138 3 -3137 2 0 -1775z m19940 -3995 c-8 -5 -19 -10 -25 -10 -5 0
-3 5 5 10 8 5 20 10 25 10 6 0 3 -5 -5 -10z m-7067 -235 c-3 -9 -8 -14 -10
-11 -3 3 -2 9 2 15 9 16 15 13 8 -4z m158 -162 c13 -16 12 -17 -3 -4 -17 13
-22 21 -14 21 2 0 10 -8 17 -17z m-4361 -2563 c22 0 57 -27 47 -37 -3 -3 -14
2 -23 11 -9 10 -23 15 -30 12 -7 -3 -16 -2 -18 3 -8 12 -126 3 -142 -10 -8 -6
-14 -8 -14 -4 0 4 -16 -5 -35 -19 -19 -15 -35 -24 -35 -20 0 11 -64 -88 -66
-101 0 -5 -2 -15 -2 -22 -1 -7 -8 -10 -16 -7 -15 6 -10 44 5 44 5 0 8 3 7 8
-5 14 54 90 74 95 11 3 17 10 14 16 -4 5 -1 13 5 17 8 4 9 3 5 -4 -4 -7 -2
-12 3 -12 6 0 11 4 11 8 0 15 42 28 95 31 28 2 52 4 54 7 2 2 12 -1 22 -6 10
-6 27 -10 39 -10z m2734 -29 c-20 -33 -37 -42 -27 -13 7 18 36 51 41 46 2 -1
-4 -16 -14 -33z m-2614 -23 c0 -4 9 -8 20 -8 11 0 20 -4 20 -10 0 -5 -9 -10
-20 -10 -11 0 -20 4 -20 8 0 4 -13 16 -30 25 -16 10 -30 23 -30 28 0 6 14 2
30 -8 17 -9 30 -21 30 -25z m2566 -34 c-3 -9 -6 -18 -6 -20 0 -3 -4 -3 -10 1
-11 7 -2 35 12 35 6 0 7 -7 4 -16z m-2496 -19 c14 -16 10 -18 -14 -9 -9 3 -16
10 -16 15 0 14 16 11 30 -6z m2460 -20 c-7 -8 -17 -15 -22 -15 -6 0 -5 7 2 15
7 8 17 15 22 15 6 0 5 -7 -2 -15z m-2437 -13 c-9 -6 -7 -13 8 -26 12 -9 18
-20 15 -23 -6 -6 -56 38 -56 50 0 4 10 7 23 7 14 0 18 -3 10 -8z m487 -46 c0
-7 11 -23 25 -36 14 -13 25 -27 25 -32 0 -11 -30 19 -58 59 -25 36 -29 51 -7
33 8 -7 15 -18 15 -24z m1878 -5 c-18 -17 -36 -31 -40 -31 -4 0 9 15 30 34 20
19 39 33 40 31 2 -2 -11 -17 -30 -34z m-2318 -41 c0 -5 -5 -10 -11 -10 -5 0
-7 5 -4 10 3 6 8 10 11 10 2 0 4 -4 4 -10z m2207 -55 c-32 -30 -61 -55 -65
-55 -9 1 107 110 116 110 4 0 -19 -25 -51 -55z m-1560 -49 c18 -9 44 -28 58
-43 14 -16 25 -24 25 -19 0 5 11 -1 24 -13 15 -14 30 -20 38 -15 7 4 10 4 6 0
-4 -5 23 -24 60 -43 37 -19 71 -41 75 -49 4 -8 15 -14 22 -14 8 0 15 -4 15
-10 0 -12 -31 -1 -45 16 -16 19 -122 74 -129 67 -3 -4 -6 -1 -6 5 0 7 -4 12
-9 12 -14 0 -91 52 -91 62 0 4 -7 8 -15 8 -8 0 -15 5 -15 11 0 5 -17 17 -37
26 -21 8 -42 21 -46 29 -4 8 -13 14 -20 14 -13 1 -57 35 -57 44 0 4 26 -11 58
-32 31 -22 71 -47 89 -56z m-636 67 c13 -17 13 -17 -6 -3 -11 8 -22 16 -24 17
-2 2 0 3 6 3 6 0 17 -8 24 -17z m10210 -16 c-7 -7 -14 -8 -21 -1 -6 6 -2 10
12 11 16 2 18 -1 9 -10z m-10178 -37 c3 -11 3 -20 1 -20 -2 0 -8 9 -14 20 -6
11 -7 20 -2 20 6 0 12 -9 15 -20z m2087 -35 c0 -2 -10 -10 -22 -16 -21 -11
-22 -11 -9 4 13 16 31 23 31 12z m-2000 -56 c0 -6 -7 -6 -20 1 -11 6 -20 15
-20 21 0 6 7 6 20 -1 11 -6 20 -15 20 -21z m1950 17 c0 -1 -11 -15 -25 -30
-14 -15 -25 -24 -25 -20 0 4 10 18 22 31 21 22 28 27 28 19z m-1896 -62 c8
-21 -7 -17 -21 6 -11 16 -10 18 1 14 8 -3 17 -12 20 -20z m1809 -34 c-9 -16
-21 -30 -25 -30 -5 0 1 14 14 30 12 17 23 30 25 30 2 0 -4 -13 -14 -30z
m-1688 -58 c-3 -3 -11 0 -18 7 -9 10 -8 11 6 5 10 -3 15 -9 12 -12z m720 -46
c18 -17 36 -42 39 -56 l6 -25 -12 25 c-14 27 -58 67 -70 63 -5 -2 -8 9 -7 25
0 15 3 21 6 13 3 -8 21 -28 38 -45z m886 -19 c-10 -9 -11 -8 -5 6 3 10 9 15
12 12 3 -3 0 -11 -7 -18z m-1536 3 c3 -5 1 -10 -4 -10 -6 0 -11 5 -11 10 0 6
2 10 4 10 3 0 8 -4 11 -10z m1511 -42 c-9 -13 -26 -36 -38 -53 -11 -16 -35
-41 -52 -55 -17 -14 -3 8 34 52 63 75 89 101 56 56z m-1416 -43 c13 -14 21
-25 18 -25 -2 0 -15 11 -28 25 -13 14 -21 25 -18 25 2 0 15 -11 28 -25z m2510
15 c0 -5 -15 -9 -32 -9 l-33 1 30 8 c17 4 31 8 33 9 1 0 2 -3 2 -9z m37 4 c-3
-3 -12 -4 -19 -1 -8 3 -5 6 6 6 11 1 17 -2 13 -5z m-1900 -31 c3 -10 15 -29
27 -43 15 -18 16 -21 3 -11 -26 21 -60 71 -47 71 6 0 13 -8 17 -17z m1893 3
c0 -3 -4 -8 -10 -11 -5 -3 -10 -1 -10 4 0 6 5 11 10 11 6 0 10 -2 10 -4z
m-2474 -48 l19 -23 -25 20 c-14 11 -27 21 -29 22 -2 2 0 3 6 3 5 0 18 -10 29
-22z m1224 -42 c0 -2 -7 -7 -16 -10 -8 -3 -12 -2 -9 4 6 10 25 14 25 6z
m-1106 -45 c-2 -3 -12 3 -22 13 -16 17 -16 18 5 5 12 -7 20 -15 17 -18z m1026
1 c0 -4 -10 -13 -22 -21 -23 -14 -23 -14 -4 8 20 22 26 25 26 13z m-969 -29
c13 -15 12 -15 -8 -4 -24 12 -29 21 -14 21 5 0 15 -7 22 -17z m5359 13 c0 -2
-7 -6 -15 -10 -8 -3 -15 -1 -15 4 0 6 7 10 15 10 8 0 15 -2 15 -4z m-4470 -19
c0 -2 -10 -12 -22 -23 l-23 -19 19 23 c18 21 26 27 26 19z m-825 -17 c3 -6 -1
-7 -9 -4 -18 7 -21 14 -7 14 6 0 13 -4 16 -10z m65 -30 c8 -5 11 -10 5 -10 -5
0 -17 5 -25 10 -8 5 -10 10 -5 10 6 0 17 -5 25 -10z m-4040 -26 c0 -8 -19 -13
-24 -6 -3 5 1 9 9 9 8 0 15 -2 15 -3z m5623 -41 c-3 -8 2 -13 13 -13 23 -1 60
-27 51 -36 -3 -4 -14 -3 -24 1 -19 8 -28 11 -51 13 -7 1 -11 6 -7 11 3 5 -5
11 -17 13 -35 5 -99 -8 -108 -22 -4 -7 -13 -9 -19 -6 -6 4 -14 0 -17 -8 -3 -9
-12 -16 -20 -16 -8 0 -15 -4 -15 -10 -1 -5 -2 -14 -3 -20 0 -5 -11 -17 -24
-25 -12 -9 -20 -21 -17 -26 4 -5 1 -9 -6 -9 -21 0 -48 -31 -42 -48 4 -10 2
-13 -5 -8 -7 4 -12 1 -12 -8 0 -8 -5 -18 -11 -21 -6 -4 -9 0 -7 11 3 19 10 31
36 59 7 8 10 19 7 25 -3 5 3 10 14 10 12 0 21 4 21 8 0 22 96 122 118 122 7 0
11 3 9 8 -3 4 28 7 68 7 55 1 72 -2 68 -12z m-1018 -102 c-3 -6 -11 -11 -17
-11 -6 0 -6 6 2 15 14 17 26 13 15 -4z m100 -1 c-3 -5 -16 -10 -28 -9 -20 1
-20 2 3 9 14 4 26 8 28 9 2 1 0 -3 -3 -9z m48 -8 c-3 -7 -9 -10 -12 -5 -3 4
-10 11 -15 15 -4 4 1 6 12 5 12 -1 18 -6 15 -15z m47 1 c0 -5 -5 -15 -10 -23
-9 -13 -11 -13 -19 0 -5 8 -7 18 -5 22 6 10 34 11 34 1z m-5726 -51 c3 -5 -1
-9 -9 -9 -8 0 -12 4 -9 9 3 4 7 8 9 8 2 0 6 -4 9 -8z m-279 -30 c-3 -3 -11 0
-18 7 -9 10 -8 11 6 5 10 -3 15 -9 12 -12z m-2250 -13 c3 -4 -13 -5 -36 -3
-22 2 -51 -2 -63 -8 -11 -7 -28 -12 -37 -13 -10 -1 -24 -9 -34 -18 -17 -18
-50 -24 -40 -8 8 14 65 41 87 41 10 0 18 4 18 9 0 9 95 9 105 0z m8135 1 c0
-5 -7 -7 -15 -4 -8 4 -15 8 -15 10 0 2 7 4 15 4 8 0 15 -4 15 -10z m-8090 -10
c0 -5 -7 -7 -15 -4 -8 4 -15 8 -15 10 0 2 7 4 15 4 8 0 15 -4 15 -10z m2025 0
c3 -6 -1 -7 -9 -4 -18 7 -21 14 -7 14 6 0 13 -4 16 -10z m5825 0 c0 -5 -9 -10
-21 -10 -11 0 -17 5 -14 10 3 6 13 10 21 10 8 0 14 -4 14 -10z m88 -32 c-9 -5
-8 -8 5 -8 14 0 17 -5 12 -20 -5 -16 -2 -20 16 -20 21 0 22 -1 5 -13 -14 -10
-29 -11 -66 -3 -27 5 -47 13 -44 18 3 5 10 5 16 2 7 -4 8 -2 4 4 -4 7 -1 12 6
12 9 0 9 3 -2 10 -10 6 -17 5 -23 -5 -4 -8 -15 -15 -22 -15 -8 0 -15 -5 -15
-11 0 -5 -4 -8 -10 -4 -5 3 -7 12 -4 20 4 8 10 12 15 9 5 -3 9 3 9 12 0 14 -3
15 -12 6 -18 -18 -49 -15 -42 3 4 9 19 15 40 15 19 0 34 4 34 9 0 16 54 17 73
2 13 -11 15 -16 5 -23z m-7853 17 c21 -11 23 -13 7 -9 -13 3 -35 7 -48 9 -33
3 -43 15 -13 15 13 -1 38 -7 54 -15z m1890 -5 c-3 -5 -12 -10 -18 -10 -7 0 -6
4 3 10 19 12 23 12 15 0z m6141 1 c-4 -5 -1 -12 4 -14 6 -3 5 -4 -2 -3 -15 3
-23 26 -8 26 6 0 9 -4 6 -9z m-7956 -21 c0 -5 -7 -7 -15 -4 -8 4 -15 8 -15 10
0 2 7 4 15 4 8 0 15 -4 15 -10z m43 -7 c-7 -2 -19 -2 -25 0 -7 3 -2 5 12 5 14
0 19 -2 13 -5z m800 0 c-13 -2 -35 -2 -50 0 -16 2 -5 4 22 4 28 0 40 -2 28 -4z
m892 -3 c-3 -5 -12 -10 -18 -10 -7 0 -6 4 3 10 19 12 23 12 15 0z m-1025 -15
c-46 -18 -64 -17 -25 0 17 8 37 14 45 14 8 0 -1 -7 -20 -14z m247 9 c-3 -3
-12 -4 -19 -1 -8 3 -5 6 6 6 11 1 17 -2 13 -5z m7553 -14 c0 -11 -4 -20 -9
-20 -5 0 -7 9 -4 20 3 11 7 20 9 20 2 0 4 -9 4 -20z m-8944 -5 c-11 -8 -22
-12 -25 -9 -6 6 19 24 34 24 6 -1 1 -7 -9 -15z m1451 9 c-3 -3 -12 -4 -19 -1
-8 3 -5 6 6 6 11 1 17 -2 13 -5z m6993 -10 c0 -8 4 -13 9 -9 5 3 13 0 17 -7 4
-7 4 -10 -1 -6 -4 4 -15 2 -23 -5 -11 -8 -14 -8 -9 0 4 6 3 14 -3 18 -13 8
-13 25 0 25 6 0 10 -7 10 -16z m-7860 -4 c0 -5 -7 -7 -15 -4 -8 4 -15 8 -15
10 0 2 7 4 15 4 8 0 15 -4 15 -10z m978 3 c-10 -2 -26 -2 -35 0 -10 3 -2 5 17
5 19 0 27 -2 18 -5z m77 -3 c3 -5 1 -10 -4 -10 -6 0 -11 5 -11 10 0 6 2 10 4
10 3 0 8 -4 11 -10z m-584 -14 c-6 -8 -25 -16 -41 -18 -43 -6 -18 9 49 31 2 0
-2 -5 -8 -13z m656 8 c-3 -3 -12 -4 -19 -1 -8 3 -5 6 6 6 11 1 17 -2 13 -5z
m6362 -8 c9 -11 6 -12 -15 -8 -19 3 -22 7 -12 13 16 11 14 11 27 -5z m-8115
-11 c-4 -8 -12 -15 -19 -15 -7 0 -18 -6 -25 -14 -6 -8 -17 -13 -25 -10 -7 3
-16 -3 -19 -13 -3 -10 -14 -19 -23 -20 -10 -1 -30 -4 -45 -7 -16 -2 -28 0 -28
6 0 6 7 8 15 4 8 -3 15 -1 15 4 0 6 14 10 30 10 20 0 30 5 30 15 0 8 8 15 18
15 9 0 28 9 42 20 30 24 41 25 34 5z m8171 -5 c3 -5 1 -10 -4 -10 -6 0 -11 5
-11 10 0 6 2 10 4 10 3 0 8 -4 11 -10z m802 -9 c0 -11 -6 -17 -14 -14 -14 6
-17 16 -6 26 12 13 22 7 20 -12z m-8204 2 c-7 -2 -21 -2 -30 0 -10 3 -4 5 12
5 17 0 24 -2 18 -5z m224 -9 c-3 -3 -40 -5 -83 -4 -99 1 -114 2 -110 9 2 3 48
5 101 3 53 -2 95 -6 92 -8z m5998 -25 c2 -3 -19 -6 -48 -8 -106 -4 -234 -62
-295 -133 -12 -15 -32 -30 -43 -33 -10 -4 -17 -11 -14 -16 4 -5 2 -9 -3 -9
-10 0 -157 -144 -242 -237 -42 -45 -143 -113 -169 -113 -24 0 -9 17 27 29 47
17 103 60 167 130 28 30 71 76 96 103 25 26 43 51 40 54 -3 3 -1 4 6 2 6 -1
29 16 51 40 22 23 46 42 52 42 6 0 8 5 5 10 -3 6 -1 10 4 10 6 0 21 11 33 25
12 14 28 25 35 25 7 0 13 3 13 8 0 8 61 38 73 34 4 -1 7 3 7 9 0 6 7 8 17 5 9
-4 20 -2 23 5 13 21 147 35 165 18z m173 -35 c23 -12 24 -14 7 -14 -12 0 -25
4 -30 9 -11 11 -78 27 -122 30 -7 1 -13 5 -13 10 0 11 121 -16 158 -35z m902
10 c0 -8 -5 -12 -10 -9 -6 4 -8 11 -5 16 9 14 15 11 15 -7z m896 -5 c5 1 9 -3
9 -9 0 -5 -3 -10 -7 -10 -5 0 -12 0 -16 0 -4 0 -9 10 -9 22 -2 16 0 19 6 10 5
-8 12 -13 17 -13z m-9156 -8 c0 -15 -7 -18 -45 -16 -25 2 -45 0 -45 -3 0 -4
-11 -7 -25 -7 -26 0 -34 12 -12 20 6 3 33 6 59 8 26 2 51 6 54 10 11 11 14 8
14 -12z m8790 1 c0 -5 11 -15 25 -22 13 -7 22 -17 19 -22 -3 -4 1 -8 9 -8 7 0
22 -8 33 -18 10 -9 28 -17 38 -17 11 0 20 -8 22 -18 2 -18 2 -18 -17 -1 -10 9
-19 13 -19 9 0 -4 -8 -1 -18 8 -10 10 -22 14 -27 10 -4 -5 -5 -2 -1 5 4 7 1
12 -8 12 -8 0 -20 9 -26 20 -6 11 -17 20 -25 20 -8 0 -15 5 -15 11 0 5 -4 7
-10 4 -5 -3 -10 -1 -10 4 0 6 7 11 15 11 8 0 15 -4 15 -8z m-8952 -24 c-3 -7
-10 -13 -15 -13 -6 0 -15 -3 -19 -7 -12 -13 -24 -9 -24 6 0 13 11 18 53 25 5
0 7 -5 5 -11z m7612 -2 c0 -3 -4 -8 -10 -11 -5 -3 -10 -1 -10 4 0 6 5 11 10
11 6 0 10 -2 10 -4z m355 -16 c3 -5 1 -10 -4 -10 -6 0 -11 5 -11 10 0 6 2 10
4 10 3 0 8 -4 11 -10z m1363 1 c11 -7 11 -9 -1 -14 -16 -6 -27 0 -27 15 0 10
11 10 28 -1z m-9408 -6 c0 -2 -9 -9 -20 -15 -16 -9 -20 -8 -20 5 0 8 9 15 20
15 11 0 20 -2 20 -5z m7753 -2 c-7 -2 -19 -2 -25 0 -7 3 -2 5 12 5 14 0 19 -2
13 -5z m167 -3 c0 -5 -10 -10 -22 -9 -22 0 -22 1 -3 9 11 5 21 9 23 9 1 1 2
-3 2 -9z m50 4 c0 -8 -19 -13 -24 -6 -3 5 1 9 9 9 8 0 15 -2 15 -3z m-8027
-15 c-6 -6 -17 -11 -24 -12 -8 -2 -19 -6 -26 -10 -23 -14 -95 -17 -90 -4 2 7
25 13 50 15 26 2 47 7 47 13 0 5 12 9 27 9 19 0 24 -3 16 -11z m7891 2 c3 -4
-6 -6 -19 -3 -14 2 -25 6 -25 8 0 8 39 4 44 -5z m1554 -10 c11 -7 11 -9 -1
-14 -16 -6 -27 0 -27 15 0 10 11 10 28 -1z m-10 -42 c-7 -4 -16 -5 -22 -2 -5
4 -7 -1 -3 -11 4 -9 3 -15 -2 -11 -5 3 -12 -1 -14 -7 -3 -7 -6 -3 -6 10 -1 12
4 22 10 22 6 0 9 7 6 15 -5 12 -2 12 19 3 17 -8 21 -14 12 -19z m-9598 6 c-7
-8 -16 -12 -21 -9 -5 3 -18 0 -30 -6 -34 -19 -69 -22 -69 -7 0 7 13 14 29 15
17 1 40 6 53 11 37 16 53 14 38 -4z m-1262 -12 c10 -10 28 -25 40 -33 14 -9
18 -17 10 -21 -6 -4 -2 -10 11 -14 13 -4 20 -12 17 -20 -3 -9 0 -12 10 -8 10
4 17 -2 21 -16 3 -11 9 -18 14 -15 5 3 9 0 9 -6 0 -7 9 -9 23 -5 14 4 17 3 9
-2 -8 -7 -2 -14 25 -27 31 -15 35 -15 24 -2 -17 20 -2 21 27 1 16 -12 20 -13
17 -2 -4 9 3 13 25 11 21 -1 30 2 30 13 0 13 3 13 15 3 12 -10 15 -10 15 0 0
8 3 10 6 7 4 -3 16 -1 28 5 31 17 76 18 76 2 0 -7 -4 -16 -10 -19 -5 -3 -10
-1 -10 6 0 9 -4 9 -15 -1 -8 -6 -19 -9 -25 -5 -5 3 -10 2 -10 -2 0 -5 -9 -9
-20 -10 -11 -1 -27 -9 -36 -18 -9 -9 -23 -14 -30 -11 -8 3 -14 1 -14 -5 0 -6
-4 -7 -10 -4 -5 3 -19 1 -31 -6 -15 -8 -19 -8 -15 0 5 7 -6 11 -32 11 -24 0
-46 7 -59 19 -12 11 -24 17 -27 14 -5 -6 -10 11 -8 28 1 4 -10 10 -23 13 -14
4 -25 13 -25 21 0 8 -4 15 -8 15 -5 0 -15 11 -22 25 -7 13 -17 22 -21 20 -4
-3 -10 4 -14 15 -3 11 -11 20 -16 20 -6 0 -7 5 -4 10 8 14 12 13 33 -7z
m10752 -5 c0 4 9 8 20 8 22 0 35 -22 18 -32 -7 -5 -8 -3 -4 5 6 9 -3 11 -33 8
-22 -2 -43 -1 -47 2 -3 3 -11 6 -16 6 -6 0 -13 6 -15 12 -4 10 6 9 36 -2 23
-8 41 -11 41 -7z m-9630 -23 c-7 -8 -16 -12 -21 -9 -5 3 -9 1 -9 -5 0 -5 -9
-9 -20 -8 -28 2 -25 14 8 25 43 16 57 15 42 -3z m-80 -29 c0 -8 -31 -36 -41
-36 -19 0 -8 29 14 33 12 2 23 5 25 6 1 0 2 -1 2 -3z m-75 -46 c-10 -11 -23
-19 -29 -17 -6 3 -19 -3 -29 -11 -21 -19 -57 -26 -57 -12 0 5 11 12 25 16 14
3 42 15 62 25 47 24 50 24 28 -1z m-491 -15 c3 -8 1 -15 -4 -15 -6 0 -10 7
-10 15 0 8 2 15 4 15 2 0 6 -7 10 -15z m29 -18 c-3 -5 -9 -3 -14 4 -4 7 -5 17
-2 22 3 5 9 3 14 -4 4 -7 5 -17 2 -22z m60 18 c15 3 27 1 27 -3 0 -5 12 -9 28
-10 15 0 32 -1 37 -2 11 -2 74 -6 143 -9 23 0 42 -5 42 -10 0 -10 -180 -8
-197 2 -5 3 -21 4 -36 3 -15 -2 -30 0 -32 4 -3 5 -16 7 -30 6 -13 -2 -26 3
-29 9 -6 16 5 29 14 15 3 -5 18 -7 33 -5z m9262 -74 c3 -5 2 -12 -3 -15 -5 -3
-9 1 -9 9 0 17 3 19 12 6z m39 -107 c14 -26 19 -41 11 -34 -20 16 -56 80 -46
80 5 0 21 -21 35 -46z m82 -111 c16 -21 38 -46 49 -55 11 -10 15 -17 8 -18 -6
0 -27 19 -45 41 -18 23 -44 53 -58 67 -21 21 -22 23 -4 14 11 -6 34 -28 50
-49z m-721 -553 c3 -5 1 -10 -4 -10 -6 0 -11 5 -11 10 0 6 2 10 4 10 3 0 8 -4
11 -10z m-45 -80 c-6 -11 -13 -20 -16 -20 -2 0 0 9 6 20 6 11 13 20 16 20 2 0
0 -9 -6 -20z m-32 -50 c-7 -10 -14 -17 -17 -15 -4 4 18 35 25 35 2 0 -1 -9 -8
-20z m-2068 -11 c0 8 2 12 5 9 3 -3 1 -16 -4 -29 -5 -13 -10 -19 -10 -12 -1 6
-4 20 -7 30 -5 15 -4 15 5 3 9 -12 11 -13 11 -1z m2033 -54 c-3 -9 -8 -14 -10
-11 -3 3 -2 9 2 15 9 16 15 13 8 -4z m-2135 -20 c-3 -3 -9 2 -12 12 -6 14 -5
15 5 6 7 -7 10 -15 7 -18z m2076 -100 c-4 -8 -8 -15 -10 -15 -2 0 -4 7 -4 15
0 8 4 15 10 15 5 0 7 -7 4 -15z m-53 -88 c-10 -9 -11 -8 -5 6 3 10 9 15 12 12
3 -3 0 -11 -7 -18z m-11 -32 c0 -8 -4 -15 -10 -15 -5 0 -7 7 -4 15 4 8 8 15
10 15 2 0 4 -7 4 -15z m-2260 -20 c-14 -8 -29 -14 -35 -14 -5 0 1 6 15 14 14
8 30 14 35 14 6 0 -1 -6 -15 -14z m2235 -80 c-4 -25 -9 -44 -12 -41 -2 2 -1
25 2 51 4 25 9 44 12 41 2 -2 1 -25 -2 -51z m15 -76 c0 -5 -4 -9 -10 -9 -5 0
-10 7 -10 16 0 8 5 12 10 9 6 -3 10 -10 10 -16z m35 -70 c20 -28 35 -52 33
-54 -2 -2 -20 21 -41 51 -21 30 -36 54 -34 54 3 0 22 -23 42 -51z m105 -159
c0 -13 -5 -5 -35 52 -4 7 3 2 14 -12 11 -14 21 -32 21 -40z m7 -72 c-3 -8 -6
-5 -6 6 -1 11 2 17 5 13 3 -3 4 -12 1 -19z m10 -40 c-3 -8 -6 -5 -6 6 -1 11 2
17 5 13 3 -3 4 -12 1 -19z m16 -63 c4 -8 3 -16 -1 -19 -4 -3 -9 4 -9 15 -2 23
3 25 10 4z m14 -80 c0 -8 -4 -15 -9 -15 -10 0 -11 14 -1 23 9 10 10 9 10 -8z
m3 -41 c0 -8 -5 -12 -10 -9 -6 4 -8 11 -5 16 9 14 15 11 15 -7z m45 -123 c3
-5 2 -12 -3 -15 -5 -3 -9 1 -9 9 0 17 3 19 12 6z m52 -153 c2 -18 0 -20 -7 -8
-12 18 -13 30 -2 30 4 0 9 -10 9 -22z m13 -89 c0 -11 -4 -18 -10 -14 -5 3 -7
12 -3 20 7 21 13 19 13 -6z m-16 -84 c-23 -49 -29 -37 -8 16 10 23 19 38 22
31 2 -6 -4 -27 -14 -47z m-47 -74 c-6 -17 -14 -28 -18 -26 -9 6 -42 -83 -34
-95 3 -5 1 -10 -5 -10 -6 0 -8 -4 -5 -10 3 -5 1 -10 -5 -10 -15 0 -3 45 32
118 30 63 55 86 35 33z m-51 -195 c3 -19 4 -41 1 -48 -3 -7 -6 0 -6 15 -1 16
-6 37 -11 48 -7 12 -7 19 -1 19 6 0 13 -16 17 -34z m11 -72 c-3 -3 -1 -18 4
-32 7 -18 6 -28 -2 -36 -9 -8 -10 -8 -5 1 3 6 2 22 -3 36 -9 23 -6 37 7 37 3
0 3 -3 -1 -6z m5 -151 c-5 -59 -10 -63 -11 -10 -1 26 3 47 7 47 4 0 6 -17 4
-37z m-19 -88 c-3 -9 -8 -14 -10 -11 -3 3 -2 9 2 15 9 16 15 13 8 -4z m-36
-77 c-3 -8 -6 -5 -6 6 -1 11 2 17 5 13 3 -3 4 -12 1 -19z m-27 -38 c-6 -11
-15 -20 -20 -20 -6 0 -2 9 7 20 10 11 19 20 21 20 1 0 -2 -9 -8 -20z m-88
-102 c-7 -7 -12 -8 -12 -2 0 14 12 26 19 19 2 -3 -1 -11 -7 -17z m-25 -33 c-4
-8 -11 -15 -17 -15 -6 0 -6 7 2 20 14 22 24 19 15 -5z m-27 -29 c0 -3 -4 -8
-10 -11 -5 -3 -10 -1 -10 4 0 6 5 11 10 11 6 0 10 -2 10 -4z m-38 -38 c-7 -7
-12 -20 -12 -30 0 -10 -4 -18 -10 -18 -5 0 -10 5 -10 12 0 12 29 48 39 48 3 0
0 -5 -7 -12z m-84 -145 c-6 -16 -18 -35 -26 -43 -11 -13 -12 -11 -1 15 13 31
29 55 35 55 2 0 -2 -12 -8 -27z m-52 -95 c-9 -12 -16 -19 -16 -15 0 11 24 47
28 42 2 -2 -3 -14 -12 -27z m-56 -103 c-18 -36 -35 -63 -38 -61 -2 3 11 34 29
70 18 36 35 63 38 61 2 -3 -11 -34 -29 -70z"/>
<path d="M10190 10046 c0 -10 28 -13 41 -5 10 6 7 9 -13 9 -16 0 -28 -2 -28
-4z"/>
<path d="M3650 13836 c0 -2 7 -7 16 -10 8 -3 12 -2 9 4 -6 10 -25 14 -25 6z"/>
<path d="M13500 11805 c-7 -9 -8 -15 -2 -15 5 0 12 7 16 15 3 8 4 15 2 15 -2
0 -9 -7 -16 -15z"/>
<path d="M11925 10400 c-19 -8 -19 -9 3 -9 12 -1 22 4 22 9 0 6 -1 10 -2 9 -2
0 -12 -4 -23 -9z"/>
<path d="M13280 10069 c0 -5 5 -7 10 -4 6 3 10 8 10 11 0 2 -4 4 -10 4 -5 0
-10 -5 -10 -11z"/>
<path d="M10420 9656 c0 -2 8 -10 18 -17 15 -13 16 -12 3 4 -13 16 -21 21 -21
13z"/>
<path d="M6980 8540 c0 -5 5 -10 11 -10 5 0 7 5 4 10 -3 6 -8 10 -11 10 -2 0
-4 -4 -4 -10z"/>
<path d="M16176 992 c-2 -4 4 -21 15 -38 10 -16 19 -27 20 -24 4 14 4 59 0 55
-2 -3 -10 0 -17 6 -7 5 -15 6 -18 1z m24 -22 c6 -11 8 -20 6 -20 -3 0 -10 9
-16 20 -6 11 -8 20 -6 20 3 0 10 -9 16 -20z"/>
</g>
</svg>
