<svg width="146" height="32" viewBox="0 0 146 32" fill="none" xmlns="http://www.w3.org/2000/svg">
<path d="M1.47619 6.57143H3.09524V1.57143H4.57143V0H0V1.57143H1.47619V6.57143Z" fill="black"/>
<path d="M4.85491 6.57143H6.47396V4.04762H8.37872V6.57143H9.99777V0H8.37872V2.52381H6.47396V0H4.85491V6.57143Z" fill="black"/>
<path d="M10.2865 6.57143H14.4388V5H11.9055V4.04762H13.6198V2.52381H11.9055V1.57143H14.4388V0H10.2865V6.57143Z" fill="black"/>
<path d="M10.2 31.5714H15.0571V21.5714H10.2V26.8571H10.1429C7.02857 26.8286 4.88571 24.4 4.88571 21.7429C4.88571 19.5714 6.28571 17.6286 8.14286 16.9143C8.74286 16.6857 9.42857 16.5714 12.1714 16.5714H12.6V11.8571H12.1714C9.31429 11.8571 8.54286 11.9429 7.94286 12.0571C3.48571 12.8857 0.0285714 16.7714 0.0285714 21.7143C0.0285714 27.1714 4.31429 31.5714 10.2 31.5714Z" fill="black"/>
<path d="M22.9964 31.8571C26.3679 31.8571 30.0821 29.5714 30.0821 24.1429V11.8571H25.225V24.1429C25.225 26 24.6536 27.1429 22.9964 27.1429C21.3393 27.1429 20.7679 26 20.7679 24.1429V11.8571H15.9107V24.1429C15.9107 29.5714 19.625 31.8571 22.9964 31.8571Z" fill="black"/>
<path d="M30.9498 31.5714H43.4069V26.8571H35.8069V24H40.9498V19.4286H35.8069V16.5714H43.4069V11.8571H30.9498V31.5714Z" fill="black"/>
<path d="M44.1467 31.5714H50.5181C53.8324 31.5714 56.5467 29.1429 56.5467 25.4857C56.5467 23.8571 56.0038 22.3143 54.8324 21.2857C53.7467 20.3429 52.3181 19.9143 50.2324 19.3143C49.3467 19.0571 48.9467 18.5143 48.9467 17.8C48.9467 17.1143 49.4324 16.5714 50.4609 16.5714H54.1181V11.8571H51.4609C50.1467 11.8571 49.2895 11.8571 48.4609 12.0286C45.8038 12.5714 44.0895 14.7714 44.0895 17.7714C44.0895 19.3714 44.5752 20.7714 45.6324 21.8571C46.6038 22.8571 47.7752 23.2286 50.3467 24.0857C51.0324 24.3143 51.6895 24.8286 51.6895 25.6C51.6895 26.2857 51.1467 26.8571 49.9467 26.8571H44.1467V31.5714Z" fill="black"/>
<path d="M59.4018 31.5714H64.2589V16.5714H68.6875V11.8571H54.9732V16.5714H59.4018V31.5714Z" fill="black"/>
<path d="M74.8393 31.5714H82.4393C86.4393 31.5714 88.8393 28.9143 88.8393 25.8571C88.8393 24.0286 87.9821 22.3143 86.725 21.4286C87.8964 20.5143 88.325 19.0857 88.325 17.8C88.325 15.2 86.5821 12.3429 83.0393 11.9429C82.2393 11.8571 81.325 11.8571 80.2964 11.8571H74.8393V31.5714ZM79.6964 19.4286V16.4286H81.9536C82.6679 16.4286 83.4679 17 83.4679 17.9429C83.4679 18.8857 82.6679 19.4286 81.9536 19.4286H79.6964ZM79.6964 27V24H82.4393C83.1821 24 83.9821 24.5143 83.9821 25.5143C83.9821 26.5143 83.1821 27 82.4393 27H79.6964Z" fill="black"/>
<path d="M99.3489 32C105.12 32 109.692 27.4286 109.692 21.6857C109.692 15.9714 105.12 11.4286 99.3489 11.4286C93.606 11.4286 89.0632 15.9714 89.0632 21.6857C89.0632 27.4286 93.606 32 99.3489 32ZM99.3775 27.2571C96.3489 27.2571 93.9203 24.7714 93.9203 21.7429C93.9203 18.7429 96.3489 16.1714 99.3775 16.1714C102.349 16.1714 104.835 18.7429 104.835 21.7429C104.835 24.7714 102.349 27.2571 99.3775 27.2571Z" fill="black"/>
<path d="M120.331 32C126.102 32 130.674 27.4286 130.674 21.6857C130.674 15.9714 126.102 11.4286 120.331 11.4286C114.588 11.4286 110.045 15.9714 110.045 21.6857C110.045 27.4286 114.588 32 120.331 32ZM120.36 27.2571C117.331 27.2571 114.902 24.7714 114.902 21.7429C114.902 18.7429 117.331 16.1714 120.36 16.1714C123.331 16.1714 125.817 18.7429 125.817 21.7429C125.817 24.7714 123.331 27.2571 120.36 27.2571Z" fill="black"/>
<path d="M131.285 31.5714H136.142V24.4286H136.199C138.97 24.4286 140.285 26.2857 140.285 29.1429V31.5714H145.142V29.1429C145.142 25.6571 143.913 22.4 140.799 21.1143L140.656 21.0571L145.427 11.8571H140.285L136.142 19.8V11.8571H131.285V31.5714Z" fill="black"/>
</svg>
